# MagicaVoxel @ Ephtracy

# group
o 

# material
mtllib flag2.mtl
usemtl palette

# normals
vn -1 0 0
vn 1 0 0
vn 0 0 1
vn 0 0 -1
vn 0 -1 0
vn 0 1 0

# texcoords
vt 0.0449219 0.5
vt 0.841797 0.5
vt 0.845703 0.5
vt 0.958984 0.5

# verts
v -1.6 0 1.6
v -1.6 0 -1.6
v -1.6 0.2 1.6
v -1.6 0.2 -1.6
v -0.4 6 0.4
v -0.4 6 -0.4
v -0.4 6.4 0.4
v -0.4 6.4 -0.4
v -0.2 0.2 0.2
v -0.2 0.2 -0.2
v -0.2 6 0.2
v -0.2 6 -0.2
v 0.2 0.2 0.2
v 0.2 0.2 -0.2
v 0.2 4.8 0.2
v 0.2 4.8 -0.2
v 0.4 6 0.4
v 0.4 6 0.2
v 0.4 6 -0.2
v 0.4 6 -0.4
v 0.4 6.4 0.4
v 0.4 6.4 -0.4
v 0.6 4.8 0.2
v 0.6 4.8 -0.2
v 0.6 4.9 0.2
v 0.6 4.9 -0.2
v 0.6 5.9 0.2
v 0.6 5.9 -0.2
v 0.6 6 0.2
v 0.6 6 -0.2
v 0.8 4.9 0.2
v 0.8 4.9 -0.2
v 0.8 5 0.2
v 0.8 5 -0.2
v 0.8 5.8 0.2
v 0.8 5.8 -0.2
v 0.8 5.9 0.2
v 0.8 5.9 -0.2
v 1 5 0.2
v 1 5 -0.2
v 1 5.1 0.2
v 1 5.1 -0.2
v 1 5.7 0.2
v 1 5.7 -0.2
v 1 5.8 0.2
v 1 5.8 -0.2
v 1.2 5.1 0.2
v 1.2 5.1 -0.2
v 1.2 5.2 0.2
v 1.2 5.2 -0.2
v 1.2 5.6 0.2
v 1.2 5.6 -0.2
v 1.2 5.7 0.2
v 1.2 5.7 -0.2
v 1.4 5.2 0.2
v 1.4 5.2 -0.2
v 1.4 5.3 0.2
v 1.4 5.3 -0.2
v 1.4 5.5 0.2
v 1.4 5.5 -0.2
v 1.4 5.6 0.2
v 1.4 5.6 -0.2
v 1.5 5.3 0.2
v 1.5 5.3 -0.2
v 1.5 5.5 0.2
v 1.5 5.5 -0.2
v 1.6 0 1.6
v 1.6 0 -1.6
v 1.6 0.2 1.6
v 1.6 0.2 -1.6
v -1.6 0 1.6
v -1.6 0.2 1.6
v 1.6 0 1.6
v 1.6 0.2 1.6
v -0.4 6 0.4
v -0.4 6.4 0.4
v 0.4 6 0.4
v 0.4 6.4 0.4
v -0.2 0.2 0.2
v -0.2 6 0.2
v 0.2 0.2 0.2
v 0.2 4.8 0.2
v 0.2 6 0.2
v 0.4 4.8 0.2
v 0.4 4.9 0.2
v 0.4 5.2 0.2
v 0.4 5.7 0.2
v 0.4 5.9 0.2
v 0.4 6 0.2
v 0.5 4.8 0.2
v 0.5 4.9 0.2
v 0.5 5.2 0.2
v 0.5 5.5 0.2
v 0.5 5.6 0.2
v 0.5 5.7 0.2
v 0.5 5.9 0.2
v 0.5 6 0.2
v 0.6 4.8 0.2
v 0.6 4.9 0.2
v 0.6 5 0.2
v 0.6 5.4 0.2
v 0.6 5.5 0.2
v 0.6 5.6 0.2
v 0.6 5.8 0.2
v 0.6 5.9 0.2
v 0.6 6 0.2
v 0.7 4.9 0.2
v 0.7 5 0.2
v 0.7 5.4 0.2
v 0.7 5.5 0.2
v 0.7 5.6 0.2
v 0.7 5.8 0.2
v 0.7 5.9 0.2
v 0.8 4.9 0.2
v 0.8 5 0.2
v 0.8 5.1 0.2
v 0.8 5.2 0.2
v 0.8 5.5 0.2
v 0.8 5.6 0.2
v 0.8 5.7 0.2
v 0.8 5.8 0.2
v 0.8 5.9 0.2
v 0.9 5 0.2
v 0.9 5.1 0.2
v 0.9 5.2 0.2
v 0.9 5.7 0.2
v 0.9 5.8 0.2
v 1 5 0.2
v 1 5.1 0.2
v 1 5.2 0.2
v 1 5.6 0.2
v 1 5.7 0.2
v 1 5.8 0.2
v 1.1 5.1 0.2
v 1.1 5.2 0.2
v 1.1 5.6 0.2
v 1.1 5.7 0.2
v 1.2 5.1 0.2
v 1.2 5.2 0.2
v 1.2 5.6 0.2
v 1.2 5.7 0.2
v 1.4 5.2 0.2
v 1.4 5.3 0.2
v 1.4 5.5 0.2
v 1.4 5.6 0.2
v 1.5 5.3 0.2
v 1.5 5.5 0.2
v -0.2 0.2 -0.2
v -0.2 6 -0.2
v 0.2 0.2 -0.2
v 0.2 4.8 -0.2
v 0.2 6 -0.2
v 0.4 4.8 -0.2
v 0.4 4.9 -0.2
v 0.4 5.9 -0.2
v 0.4 6 -0.2
v 0.5 4.8 -0.2
v 0.5 4.9 -0.2
v 0.5 5.9 -0.2
v 0.5 6 -0.2
v 0.6 4.8 -0.2
v 0.6 4.9 -0.2
v 0.6 5 -0.2
v 0.6 5.8 -0.2
v 0.6 5.9 -0.2
v 0.6 6 -0.2
v 0.7 4.9 -0.2
v 0.7 5 -0.2
v 0.7 5.8 -0.2
v 0.7 5.9 -0.2
v 0.8 4.9 -0.2
v 0.8 5 -0.2
v 0.8 5.1 -0.2
v 0.8 5.7 -0.2
v 0.8 5.8 -0.2
v 0.8 5.9 -0.2
v 0.9 5 -0.2
v 0.9 5.1 -0.2
v 0.9 5.7 -0.2
v 0.9 5.8 -0.2
v 1 5 -0.2
v 1 5.1 -0.2
v 1 5.2 -0.2
v 1 5.6 -0.2
v 1 5.7 -0.2
v 1 5.8 -0.2
v 1.1 5.1 -0.2
v 1.1 5.2 -0.2
v 1.1 5.6 -0.2
v 1.1 5.7 -0.2
v 1.2 5.1 -0.2
v 1.2 5.2 -0.2
v 1.2 5.6 -0.2
v 1.2 5.7 -0.2
v 1.4 5.2 -0.2
v 1.4 5.3 -0.2
v 1.4 5.5 -0.2
v 1.4 5.6 -0.2
v 1.5 5.3 -0.2
v 1.5 5.5 -0.2
v -0.4 6 -0.4
v -0.4 6.4 -0.4
v 0.4 6 -0.4
v 0.4 6.4 -0.4
v -1.6 0 -1.6
v -1.6 0.2 -1.6
v 1.6 0 -1.6
v 1.6 0.2 -1.6
v -1.6 0 1.6
v 1.6 0 1.6
v -1.6 0 -1.6
v 1.6 0 -1.6
v 0.2 4.8 0.2
v 0.4 4.8 0.2
v 0.5 4.8 0.2
v 0.6 4.8 0.2
v 0.2 4.8 -0.2
v 0.4 4.8 -0.2
v 0.5 4.8 -0.2
v 0.6 4.8 -0.2
v 0.6 4.9 0.2
v 0.7 4.9 0.2
v 0.8 4.9 0.2
v 0.6 4.9 -0.2
v 0.7 4.9 -0.2
v 0.8 4.9 -0.2
v 0.8 5 0.2
v 0.9 5 0.2
v 1 5 0.2
v 0.8 5 -0.2
v 0.9 5 -0.2
v 1 5 -0.2
v 1 5.1 0.2
v 1.1 5.1 0.2
v 1.2 5.1 0.2
v 1 5.1 -0.2
v 1.1 5.1 -0.2
v 1.2 5.1 -0.2
v 1.2 5.2 0.2
v 1.4 5.2 0.2
v 1.2 5.2 -0.2
v 1.4 5.2 -0.2
v 1.4 5.3 0.2
v 1.5 5.3 0.2
v 1.4 5.3 -0.2
v 1.5 5.3 -0.2
v -0.4 6 0.4
v 0.4 6 0.4
v -0.2 6 0.2
v 0.2 6 0.2
v 0.4 6 0.2
v -0.2 6 -0.2
v 0.2 6 -0.2
v 0.4 6 -0.2
v -0.4 6 -0.4
v 0.4 6 -0.4
v -1.6 0.2 1.6
v 1.6 0.2 1.6
v -0.2 0.2 0.2
v 0.2 0.2 0.2
v -0.2 0.2 -0.2
v 0.2 0.2 -0.2
v -1.6 0.2 -1.6
v 1.6 0.2 -1.6
v 1.4 5.5 0.2
v 1.5 5.5 0.2
v 1.4 5.5 -0.2
v 1.5 5.5 -0.2
v 1.2 5.6 0.2
v 1.4 5.6 0.2
v 1.2 5.6 -0.2
v 1.4 5.6 -0.2
v 1 5.7 0.2
v 1.1 5.7 0.2
v 1.2 5.7 0.2
v 1 5.7 -0.2
v 1.1 5.7 -0.2
v 1.2 5.7 -0.2
v 0.8 5.8 0.2
v 0.9 5.8 0.2
v 1 5.8 0.2
v 0.8 5.8 -0.2
v 0.9 5.8 -0.2
v 1 5.8 -0.2
v 0.6 5.9 0.2
v 0.7 5.9 0.2
v 0.8 5.9 0.2
v 0.6 5.9 -0.2
v 0.7 5.9 -0.2
v 0.8 5.9 -0.2
v 0.4 6 0.2
v 0.5 6 0.2
v 0.6 6 0.2
v 0.4 6 -0.2
v 0.5 6 -0.2
v 0.6 6 -0.2
v -0.4 6.4 0.4
v 0.4 6.4 0.4
v -0.4 6.4 -0.4
v 0.4 6.4 -0.4

# faces
f 3/1/1 2/1/1 1/1/1
f 4/1/1 2/1/1 3/1/1
f 7/1/1 6/1/1 5/1/1
f 8/1/1 6/1/1 7/1/1
f 11/1/1 10/1/1 9/1/1
f 12/1/1 10/1/1 11/1/1
f 13/1/2 14/1/2 15/1/2
f 15/1/2 14/1/2 16/1/2
f 17/1/2 18/1/2 21/1/2
f 19/1/2 20/1/2 21/1/2
f 18/1/2 19/1/2 21/1/2
f 21/1/2 20/1/2 22/1/2
f 23/2/2 24/2/2 25/2/2
f 25/2/2 24/2/2 26/2/2
f 27/2/2 28/2/2 29/2/2
f 29/2/2 28/2/2 30/2/2
f 31/2/2 32/2/2 33/2/2
f 33/2/2 32/2/2 34/2/2
f 35/2/2 36/2/2 37/2/2
f 37/2/2 36/2/2 38/2/2
f 39/2/2 40/2/2 41/2/2
f 41/2/2 40/2/2 42/2/2
f 43/2/2 44/2/2 45/2/2
f 45/2/2 44/2/2 46/2/2
f 47/2/2 48/2/2 49/2/2
f 49/2/2 48/2/2 50/2/2
f 51/2/2 52/2/2 53/2/2
f 53/2/2 52/2/2 54/2/2
f 55/2/2 56/2/2 57/2/2
f 57/2/2 56/2/2 58/2/2
f 59/2/2 60/2/2 61/2/2
f 61/2/2 60/2/2 62/2/2
f 63/2/2 64/2/2 65/2/2
f 65/2/2 64/2/2 66/2/2
f 67/1/2 68/1/2 69/1/2
f 69/1/2 68/1/2 70/1/2
f 73/1/3 72/1/3 71/1/3
f 74/1/3 72/1/3 73/1/3
f 77/1/3 76/1/3 75/1/3
f 78/1/3 76/1/3 77/1/3
f 81/1/3 80/1/3 79/1/3
f 82/1/3 80/1/3 81/1/3
f 83/1/3 80/1/3 82/1/3
f 84/2/3 83/2/3 82/2/3
f 85/2/3 83/2/3 84/2/3
f 86/2/3 83/2/3 85/2/3
f 87/2/3 83/2/3 86/2/3
f 88/2/3 83/2/3 87/2/3
f 89/2/3 83/2/3 88/2/3
f 90/3/3 85/3/3 84/3/3
f 91/2/3 86/2/3 85/2/3
f 91/3/3 85/3/3 90/3/3
f 92/4/3 87/4/3 86/4/3
f 92/2/3 86/2/3 91/2/3
f 93/4/3 87/4/3 92/4/3
f 94/4/3 87/4/3 93/4/3
f 95/2/3 88/2/3 87/2/3
f 95/4/3 87/4/3 94/4/3
f 96/3/3 89/3/3 88/3/3
f 96/2/3 88/2/3 95/2/3
f 97/3/3 89/3/3 96/3/3
f 98/2/3 91/2/3 90/2/3
f 98/2/3 92/2/3 91/2/3
f 98/2/3 93/2/3 92/2/3
f 99/2/3 93/2/3 98/2/3
f 100/2/3 93/2/3 99/2/3
f 101/2/3 93/2/3 100/2/3
f 102/4/3 94/4/3 93/4/3
f 102/2/3 93/2/3 101/2/3
f 103/2/3 95/2/3 94/2/3
f 103/4/3 94/4/3 102/4/3
f 103/2/3 97/2/3 96/2/3
f 103/2/3 96/2/3 95/2/3
f 104/2/3 97/2/3 103/2/3
f 105/2/3 97/2/3 104/2/3
f 106/2/3 97/2/3 105/2/3
f 107/3/3 100/3/3 99/3/3
f 108/2/3 101/2/3 100/2/3
f 108/3/3 100/3/3 107/3/3
f 109/4/3 102/4/3 101/4/3
f 109/2/3 101/2/3 108/2/3
f 110/2/3 103/2/3 102/2/3
f 110/4/3 102/4/3 109/4/3
f 110/2/3 104/2/3 103/2/3
f 111/2/3 104/2/3 110/2/3
f 112/3/3 105/3/3 104/3/3
f 112/2/3 104/2/3 111/2/3
f 113/3/3 105/3/3 112/3/3
f 114/2/3 108/2/3 107/2/3
f 114/2/3 109/2/3 108/2/3
f 114/2/3 110/2/3 109/2/3
f 115/2/3 110/2/3 114/2/3
f 116/2/3 110/2/3 115/2/3
f 117/2/3 110/2/3 116/2/3
f 118/4/3 111/4/3 110/4/3
f 118/2/3 110/2/3 117/2/3
f 119/2/3 113/2/3 112/2/3
f 119/4/3 111/4/3 118/4/3
f 119/2/3 112/2/3 111/2/3
f 120/2/3 113/2/3 119/2/3
f 121/2/3 113/2/3 120/2/3
f 122/2/3 113/2/3 121/2/3
f 123/3/3 116/3/3 115/3/3
f 124/2/3 117/2/3 116/2/3
f 124/3/3 116/3/3 123/3/3
f 125/4/3 118/4/3 117/4/3
f 125/2/3 117/2/3 124/2/3
f 125/4/3 119/4/3 118/4/3
f 125/4/3 120/4/3 119/4/3
f 126/3/3 121/3/3 120/3/3
f 126/4/3 120/4/3 125/4/3
f 127/3/3 121/3/3 126/3/3
f 128/2/3 124/2/3 123/2/3
f 128/2/3 125/2/3 124/2/3
f 128/2/3 127/2/3 126/2/3
f 128/2/3 126/2/3 125/2/3
f 129/2/3 127/2/3 128/2/3
f 130/2/3 127/2/3 129/2/3
f 131/2/3 127/2/3 130/2/3
f 132/2/3 127/2/3 131/2/3
f 133/2/3 127/2/3 132/2/3
f 134/3/3 130/3/3 129/3/3
f 135/2/3 131/2/3 130/2/3
f 135/3/3 130/3/3 134/3/3
f 136/3/3 132/3/3 131/3/3
f 136/2/3 131/2/3 135/2/3
f 137/3/3 132/3/3 136/3/3
f 138/2/3 135/2/3 134/2/3
f 138/2/3 136/2/3 135/2/3
f 138/2/3 137/2/3 136/2/3
f 139/2/3 137/2/3 138/2/3
f 140/2/3 137/2/3 139/2/3
f 141/2/3 137/2/3 140/2/3
f 142/2/3 140/2/3 139/2/3
f 143/2/3 140/2/3 142/2/3
f 144/2/3 140/2/3 143/2/3
f 145/2/3 140/2/3 144/2/3
f 146/2/3 144/2/3 143/2/3
f 147/2/3 144/2/3 146/2/3
f 148/1/4 149/1/4 150/1/4
f 150/1/4 149/1/4 151/1/4
f 151/1/4 149/1/4 152/1/4
f 151/2/4 152/2/4 153/2/4
f 153/2/4 152/2/4 154/2/4
f 154/2/4 152/2/4 155/2/4
f 155/2/4 152/2/4 156/2/4
f 153/3/4 154/3/4 157/3/4
f 154/2/4 155/2/4 158/2/4
f 157/3/4 154/3/4 158/3/4
f 155/3/4 156/3/4 159/3/4
f 158/2/4 155/2/4 159/2/4
f 159/3/4 156/3/4 160/3/4
f 157/2/4 158/2/4 161/2/4
f 158/2/4 159/2/4 161/2/4
f 159/2/4 160/2/4 161/2/4
f 161/2/4 160/2/4 162/2/4
f 162/2/4 160/2/4 163/2/4
f 163/2/4 160/2/4 164/2/4
f 164/2/4 160/2/4 165/2/4
f 165/2/4 160/2/4 166/2/4
f 162/3/4 163/3/4 167/3/4
f 163/2/4 164/2/4 168/2/4
f 167/3/4 163/3/4 168/3/4
f 164/3/4 165/3/4 169/3/4
f 168/2/4 164/2/4 169/2/4
f 169/3/4 165/3/4 170/3/4
f 167/2/4 168/2/4 171/2/4
f 168/2/4 169/2/4 171/2/4
f 169/2/4 170/2/4 171/2/4
f 171/2/4 170/2/4 172/2/4
f 172/2/4 170/2/4 173/2/4
f 173/2/4 170/2/4 174/2/4
f 174/2/4 170/2/4 175/2/4
f 175/2/4 170/2/4 176/2/4
f 172/3/4 173/3/4 177/3/4
f 173/2/4 174/2/4 178/2/4
f 177/3/4 173/3/4 178/3/4
f 174/3/4 175/3/4 179/3/4
f 178/2/4 174/2/4 179/2/4
f 179/3/4 175/3/4 180/3/4
f 177/2/4 178/2/4 181/2/4
f 178/2/4 179/2/4 181/2/4
f 179/2/4 180/2/4 181/2/4
f 181/2/4 180/2/4 182/2/4
f 182/2/4 180/2/4 183/2/4
f 183/2/4 180/2/4 184/2/4
f 184/2/4 180/2/4 185/2/4
f 185/2/4 180/2/4 186/2/4
f 182/3/4 183/3/4 187/3/4
f 183/2/4 184/2/4 188/2/4
f 187/3/4 183/3/4 188/3/4
f 184/3/4 185/3/4 189/3/4
f 188/2/4 184/2/4 189/2/4
f 189/3/4 185/3/4 190/3/4
f 187/2/4 188/2/4 191/2/4
f 188/2/4 189/2/4 191/2/4
f 189/2/4 190/2/4 191/2/4
f 191/2/4 190/2/4 192/2/4
f 192/2/4 190/2/4 193/2/4
f 193/2/4 190/2/4 194/2/4
f 192/2/4 193/2/4 195/2/4
f 195/2/4 193/2/4 196/2/4
f 196/2/4 193/2/4 197/2/4
f 197/2/4 193/2/4 198/2/4
f 196/2/4 197/2/4 199/2/4
f 199/2/4 197/2/4 200/2/4
f 201/1/4 202/1/4 203/1/4
f 203/1/4 202/1/4 204/1/4
f 205/1/4 206/1/4 207/1/4
f 207/1/4 206/1/4 208/1/4
f 211/1/5 210/1/5 209/1/5
f 212/1/5 210/1/5 211/1/5
f 217/2/5 214/2/5 213/2/5
f 218/3/5 215/3/5 214/3/5
f 218/2/5 214/2/5 217/2/5
f 219/2/5 216/2/5 215/2/5
f 219/3/5 215/3/5 218/3/5
f 220/2/5 216/2/5 219/2/5
f 224/3/5 222/3/5 221/3/5
f 225/2/5 223/2/5 222/2/5
f 225/3/5 222/3/5 224/3/5
f 226/2/5 223/2/5 225/2/5
f 230/3/5 228/3/5 227/3/5
f 231/2/5 229/2/5 228/2/5
f 231/3/5 228/3/5 230/3/5
f 232/2/5 229/2/5 231/2/5
f 236/3/5 234/3/5 233/3/5
f 237/2/5 235/2/5 234/2/5
f 237/3/5 234/3/5 236/3/5
f 238/2/5 235/2/5 237/2/5
f 241/2/5 240/2/5 239/2/5
f 242/2/5 240/2/5 241/2/5
f 245/2/5 244/2/5 243/2/5
f 246/2/5 244/2/5 245/2/5
f 249/1/5 248/1/5 247/1/5
f 250/1/5 248/1/5 249/1/5
f 251/1/5 248/1/5 250/1/5
f 252/1/5 249/1/5 247/1/5
f 255/1/5 252/1/5 247/1/5
f 255/1/5 254/1/5 253/1/5
f 255/1/5 253/1/5 252/1/5
f 256/1/5 254/1/5 255/1/5
f 257/1/6 258/1/6 259/1/6
f 259/1/6 258/1/6 260/1/6
f 257/1/6 259/1/6 261/1/6
f 260/1/6 258/1/6 262/1/6
f 257/1/6 261/1/6 263/1/6
f 261/1/6 262/1/6 263/1/6
f 262/1/6 258/1/6 264/1/6
f 263/1/6 262/1/6 264/1/6
f 265/2/6 266/2/6 267/2/6
f 267/2/6 266/2/6 268/2/6
f 269/2/6 270/2/6 271/2/6
f 271/2/6 270/2/6 272/2/6
f 273/3/6 274/3/6 276/3/6
f 274/2/6 275/2/6 277/2/6
f 276/3/6 274/3/6 277/3/6
f 277/2/6 275/2/6 278/2/6
f 279/3/6 280/3/6 282/3/6
f 280/2/6 281/2/6 283/2/6
f 282/3/6 280/3/6 283/3/6
f 283/2/6 281/2/6 284/2/6
f 285/3/6 286/3/6 288/3/6
f 286/2/6 287/2/6 289/2/6
f 288/3/6 286/3/6 289/3/6
f 289/2/6 287/2/6 290/2/6
f 291/3/6 292/3/6 294/3/6
f 292/2/6 293/2/6 295/2/6
f 294/3/6 292/3/6 295/3/6
f 295/2/6 293/2/6 296/2/6
f 297/1/6 298/1/6 299/1/6
f 299/1/6 298/1/6 300/1/6
