# MagicaVoxel @ Ephtracy

# group
o 

# material
mtllib flag.mtl
usemtl palette

# normals
vn -1 0 0
vn 1 0 0
vn 0 0 1
vn 0 0 -1
vn 0 -1 0
vn 0 1 0

# texcoords
vt 0.0449219 0.5
vt 0.841797 0.5
vt 0.845703 0.5
vt 0.958984 0.5

# verts
v -1.6 0 1.6
v -1.6 0 -1.6
v -1.6 0.2 1.6
v -1.6 0.2 -1.6
v -0.4 6 0.4
v -0.4 6 -0.4
v -0.4 6.4 0.4
v -0.4 6.4 -0.4
v -0.2 0.2 0.2
v -0.2 0.2 -0.2
v -0.2 6 0.2
v -0.2 6 -0.2
v 0.2 0.2 0.2
v 0.2 0.2 -0.2
v 0.2 4.8 0.2
v 0.2 4.8 -0.2
v 0.4 6 0.4
v 0.4 6 0.2
v 0.4 6 -0.2
v 0.4 6 -0.4
v 0.4 6.4 0.4
v 0.4 6.4 -0.4
v 0.5 4.8 0.2
v 0.5 4.8 -0.2
v 0.5 4.9 0.2
v 0.5 4.9 -0.2
v 0.5 5.9 0.2
v 0.5 5.9 -0.2
v 0.5 6 0.2
v 0.5 6 -0.2
v 0.7 4.9 0.2
v 0.7 4.9 -0.2
v 0.7 5 0.2
v 0.7 5 -0.2
v 0.7 5.8 0.2
v 0.7 5.8 -0.2
v 0.7 5.9 0.2
v 0.7 5.9 -0.2
v 0.9 5 0.2
v 0.9 5 -0.2
v 0.9 5.1 0.2
v 0.9 5.1 -0.2
v 0.9 5.7 0.2
v 0.9 5.7 -0.2
v 0.9 5.8 0.2
v 0.9 5.8 -0.2
v 1.1 5.1 0.2
v 1.1 5.1 -0.2
v 1.1 5.2 0.2
v 1.1 5.2 -0.2
v 1.1 5.6 0.2
v 1.1 5.6 -0.2
v 1.1 5.7 0.2
v 1.1 5.7 -0.2
v 1.3 5.2 0.2
v 1.3 5.2 -0.2
v 1.3 5.3 0.2
v 1.3 5.3 -0.2
v 1.3 5.5 0.2
v 1.3 5.5 -0.2
v 1.3 5.6 0.2
v 1.3 5.6 -0.2
v 1.5 5.3 0.2
v 1.5 5.3 -0.2
v 1.5 5.5 0.2
v 1.5 5.5 -0.2
v 1.6 0 1.6
v 1.6 0 -1.6
v 1.6 0.2 1.6
v 1.6 0.2 -1.6
v -1.6 0 1.6
v -1.6 0.2 1.6
v 1.6 0 1.6
v 1.6 0.2 1.6
v -0.4 6 0.4
v -0.4 6.4 0.4
v 0.4 6 0.4
v 0.4 6.4 0.4
v -0.2 0.2 0.2
v -0.2 6 0.2
v 0.2 0.2 0.2
v 0.2 4.8 0.2
v 0.2 6 0.2
v 0.3 5.2 0.2
v 0.3 5.7 0.2
v 0.4 4.8 0.2
v 0.4 4.9 0.2
v 0.4 5.2 0.2
v 0.4 5.5 0.2
v 0.4 5.6 0.2
v 0.4 5.7 0.2
v 0.4 5.9 0.2
v 0.4 6 0.2
v 0.5 4.8 0.2
v 0.5 4.9 0.2
v 0.5 5.4 0.2
v 0.5 5.5 0.2
v 0.5 5.6 0.2
v 0.5 5.9 0.2
v 0.5 6 0.2
v 0.6 4.9 0.2
v 0.6 5 0.2
v 0.6 5.4 0.2
v 0.6 5.5 0.2
v 0.6 5.6 0.2
v 0.6 5.8 0.2
v 0.6 5.9 0.2
v 0.7 4.9 0.2
v 0.7 5 0.2
v 0.7 5.2 0.2
v 0.7 5.5 0.2
v 0.7 5.6 0.2
v 0.7 5.7 0.2
v 0.7 5.8 0.2
v 0.7 5.9 0.2
v 0.8 5 0.2
v 0.8 5.1 0.2
v 0.8 5.2 0.2
v 0.8 5.7 0.2
v 0.8 5.8 0.2
v 0.9 5 0.2
v 0.9 5.1 0.2
v 0.9 5.7 0.2
v 0.9 5.8 0.2
v 1 5.1 0.2
v 1 5.2 0.2
v 1 5.6 0.2
v 1 5.7 0.2
v 1.1 5.1 0.2
v 1.1 5.2 0.2
v 1.1 5.6 0.2
v 1.1 5.7 0.2
v 1.3 5.2 0.2
v 1.3 5.3 0.2
v 1.3 5.5 0.2
v 1.3 5.6 0.2
v 1.5 5.3 0.2
v 1.5 5.5 0.2
v -0.2 0.2 -0.2
v -0.2 6 -0.2
v 0.2 0.2 -0.2
v 0.2 4.8 -0.2
v 0.2 6 -0.2
v 0.4 4.8 -0.2
v 0.4 4.9 -0.2
v 0.4 5.9 -0.2
v 0.4 6 -0.2
v 0.5 4.8 -0.2
v 0.5 4.9 -0.2
v 0.5 5.9 -0.2
v 0.5 6 -0.2
v 0.6 4.9 -0.2
v 0.6 5 -0.2
v 0.6 5.8 -0.2
v 0.6 5.9 -0.2
v 0.7 4.9 -0.2
v 0.7 5 -0.2
v 0.7 5.8 -0.2
v 0.7 5.9 -0.2
v 0.8 5 -0.2
v 0.8 5.1 -0.2
v 0.8 5.7 -0.2
v 0.8 5.8 -0.2
v 0.9 5 -0.2
v 0.9 5.1 -0.2
v 0.9 5.7 -0.2
v 0.9 5.8 -0.2
v 1 5.1 -0.2
v 1 5.2 -0.2
v 1 5.6 -0.2
v 1 5.7 -0.2
v 1.1 5.1 -0.2
v 1.1 5.2 -0.2
v 1.1 5.6 -0.2
v 1.1 5.7 -0.2
v 1.3 5.2 -0.2
v 1.3 5.3 -0.2
v 1.3 5.5 -0.2
v 1.3 5.6 -0.2
v 1.5 5.3 -0.2
v 1.5 5.5 -0.2
v -0.4 6 -0.4
v -0.4 6.4 -0.4
v 0.4 6 -0.4
v 0.4 6.4 -0.4
v -1.6 0 -1.6
v -1.6 0.2 -1.6
v 1.6 0 -1.6
v 1.6 0.2 -1.6
v -1.6 0 1.6
v 1.6 0 1.6
v -1.6 0 -1.6
v 1.6 0 -1.6
v 0.2 4.8 0.2
v 0.4 4.8 0.2
v 0.5 4.8 0.2
v 0.2 4.8 -0.2
v 0.4 4.8 -0.2
v 0.5 4.8 -0.2
v 0.5 4.9 0.2
v 0.6 4.9 0.2
v 0.7 4.9 0.2
v 0.5 4.9 -0.2
v 0.6 4.9 -0.2
v 0.7 4.9 -0.2
v 0.7 5 0.2
v 0.8 5 0.2
v 0.9 5 0.2
v 0.7 5 -0.2
v 0.8 5 -0.2
v 0.9 5 -0.2
v 0.9 5.1 0.2
v 1 5.1 0.2
v 1.1 5.1 0.2
v 0.9 5.1 -0.2
v 1 5.1 -0.2
v 1.1 5.1 -0.2
v 1.1 5.2 0.2
v 1.3 5.2 0.2
v 1.1 5.2 -0.2
v 1.3 5.2 -0.2
v 1.3 5.3 0.2
v 1.5 5.3 0.2
v 1.3 5.3 -0.2
v 1.5 5.3 -0.2
v -0.4 6 0.4
v 0.4 6 0.4
v -0.2 6 0.2
v 0.2 6 0.2
v 0.4 6 0.2
v -0.2 6 -0.2
v 0.2 6 -0.2
v 0.4 6 -0.2
v -0.4 6 -0.4
v 0.4 6 -0.4
v -1.6 0.2 1.6
v 1.6 0.2 1.6
v -0.2 0.2 0.2
v 0.2 0.2 0.2
v -0.2 0.2 -0.2
v 0.2 0.2 -0.2
v -1.6 0.2 -1.6
v 1.6 0.2 -1.6
v 1.3 5.5 0.2
v 1.5 5.5 0.2
v 1.3 5.5 -0.2
v 1.5 5.5 -0.2
v 1.1 5.6 0.2
v 1.3 5.6 0.2
v 1.1 5.6 -0.2
v 1.3 5.6 -0.2
v 0.9 5.7 0.2
v 1 5.7 0.2
v 1.1 5.7 0.2
v 0.9 5.7 -0.2
v 1 5.7 -0.2
v 1.1 5.7 -0.2
v 0.7 5.8 0.2
v 0.8 5.8 0.2
v 0.9 5.8 0.2
v 0.7 5.8 -0.2
v 0.8 5.8 -0.2
v 0.9 5.8 -0.2
v 0.5 5.9 0.2
v 0.6 5.9 0.2
v 0.7 5.9 0.2
v 0.5 5.9 -0.2
v 0.6 5.9 -0.2
v 0.7 5.9 -0.2
v 0.4 6 0.2
v 0.5 6 0.2
v 0.4 6 -0.2
v 0.5 6 -0.2
v -0.4 6.4 0.4
v 0.4 6.4 0.4
v -0.4 6.4 -0.4
v 0.4 6.4 -0.4

# faces
f 3/1/1 2/1/1 1/1/1
f 4/1/1 2/1/1 3/1/1
f 7/1/1 6/1/1 5/1/1
f 8/1/1 6/1/1 7/1/1
f 11/1/1 10/1/1 9/1/1
f 12/1/1 10/1/1 11/1/1
f 13/1/2 14/1/2 15/1/2
f 15/1/2 14/1/2 16/1/2
f 17/1/2 18/1/2 21/1/2
f 19/1/2 20/1/2 21/1/2
f 18/1/2 19/1/2 21/1/2
f 21/1/2 20/1/2 22/1/2
f 23/3/2 24/3/2 25/3/2
f 25/3/2 24/3/2 26/3/2
f 27/3/2 28/3/2 29/3/2
f 29/3/2 28/3/2 30/3/2
f 31/3/2 32/3/2 33/3/2
f 33/3/2 32/3/2 34/3/2
f 35/3/2 36/3/2 37/3/2
f 37/3/2 36/3/2 38/3/2
f 39/3/2 40/3/2 41/3/2
f 41/3/2 40/3/2 42/3/2
f 43/3/2 44/3/2 45/3/2
f 45/3/2 44/3/2 46/3/2
f 47/3/2 48/3/2 49/3/2
f 49/3/2 48/3/2 50/3/2
f 51/3/2 52/3/2 53/3/2
f 53/3/2 52/3/2 54/3/2
f 55/2/2 56/2/2 57/2/2
f 57/2/2 56/2/2 58/2/2
f 59/2/2 60/2/2 61/2/2
f 61/2/2 60/2/2 62/2/2
f 63/2/2 64/2/2 65/2/2
f 65/2/2 64/2/2 66/2/2
f 67/1/2 68/1/2 69/1/2
f 69/1/2 68/1/2 70/1/2
f 73/1/3 72/1/3 71/1/3
f 74/1/3 72/1/3 73/1/3
f 77/1/3 76/1/3 75/1/3
f 78/1/3 76/1/3 77/1/3
f 81/1/3 80/1/3 79/1/3
f 82/1/3 80/1/3 81/1/3
f 83/1/3 80/1/3 82/1/3
f 84/2/3 83/2/3 82/2/3
f 85/2/3 83/2/3 84/2/3
f 86/2/3 84/2/3 82/2/3
f 87/2/3 84/2/3 86/2/3
f 88/4/3 85/4/3 84/4/3
f 88/2/3 84/2/3 87/2/3
f 89/4/3 85/4/3 88/4/3
f 90/4/3 85/4/3 89/4/3
f 91/2/3 83/2/3 85/2/3
f 91/4/3 85/4/3 90/4/3
f 92/2/3 83/2/3 91/2/3
f 93/2/3 83/2/3 92/2/3
f 94/3/3 87/3/3 86/3/3
f 95/2/3 88/2/3 87/2/3
f 95/3/3 87/3/3 94/3/3
f 95/2/3 89/2/3 88/2/3
f 96/2/3 89/2/3 95/2/3
f 97/4/3 90/4/3 89/4/3
f 97/2/3 89/2/3 96/2/3
f 98/2/3 91/2/3 90/2/3
f 98/4/3 90/4/3 97/4/3
f 98/2/3 92/2/3 91/2/3
f 99/3/3 93/3/3 92/3/3
f 99/2/3 92/2/3 98/2/3
f 100/3/3 93/3/3 99/3/3
f 101/2/3 96/2/3 95/2/3
f 102/2/3 96/2/3 101/2/3
f 103/4/3 97/4/3 96/4/3
f 103/2/3 96/2/3 102/2/3
f 104/2/3 98/2/3 97/2/3
f 104/4/3 97/4/3 103/4/3
f 104/2/3 99/2/3 98/2/3
f 105/2/3 99/2/3 104/2/3
f 106/2/3 99/2/3 105/2/3
f 107/2/3 99/2/3 106/2/3
f 108/3/3 102/3/3 101/3/3
f 109/2/3 103/2/3 102/2/3
f 109/3/3 102/3/3 108/3/3
f 109/2/3 104/2/3 103/2/3
f 110/2/3 104/2/3 109/2/3
f 111/4/3 105/4/3 104/4/3
f 111/2/3 104/2/3 110/2/3
f 112/2/3 106/2/3 105/2/3
f 112/4/3 105/4/3 111/4/3
f 113/2/3 106/2/3 112/2/3
f 114/3/3 107/3/3 106/3/3
f 114/2/3 106/2/3 113/2/3
f 115/3/3 107/3/3 114/3/3
f 116/2/3 110/2/3 109/2/3
f 117/2/3 110/2/3 116/2/3
f 118/4/3 113/4/3 112/4/3
f 118/2/3 110/2/3 117/2/3
f 118/4/3 111/4/3 110/4/3
f 118/4/3 112/4/3 111/4/3
f 119/2/3 114/2/3 113/2/3
f 119/4/3 113/4/3 118/4/3
f 120/2/3 114/2/3 119/2/3
f 121/3/3 117/3/3 116/3/3
f 122/2/3 118/2/3 117/2/3
f 122/3/3 117/3/3 121/3/3
f 122/2/3 119/2/3 118/2/3
f 123/3/3 120/3/3 119/3/3
f 123/2/3 119/2/3 122/2/3
f 124/3/3 120/3/3 123/3/3
f 125/2/3 123/2/3 122/2/3
f 126/2/3 123/2/3 125/2/3
f 127/2/3 123/2/3 126/2/3
f 128/2/3 123/2/3 127/2/3
f 129/3/3 126/3/3 125/3/3
f 130/2/3 127/2/3 126/2/3
f 130/3/3 126/3/3 129/3/3
f 131/3/3 128/3/3 127/3/3
f 131/2/3 127/2/3 130/2/3
f 132/3/3 128/3/3 131/3/3
f 133/2/3 131/2/3 130/2/3
f 134/2/3 131/2/3 133/2/3
f 135/2/3 131/2/3 134/2/3
f 136/2/3 131/2/3 135/2/3
f 137/2/3 135/2/3 134/2/3
f 138/2/3 135/2/3 137/2/3
f 139/1/4 140/1/4 141/1/4
f 141/1/4 140/1/4 142/1/4
f 142/1/4 140/1/4 143/1/4
f 142/2/4 143/2/4 144/2/4
f 144/2/4 143/2/4 145/2/4
f 145/2/4 143/2/4 146/2/4
f 146/2/4 143/2/4 147/2/4
f 144/3/4 145/3/4 148/3/4
f 145/2/4 146/2/4 149/2/4
f 148/3/4 145/3/4 149/3/4
f 146/3/4 147/3/4 150/3/4
f 149/2/4 146/2/4 150/2/4
f 150/3/4 147/3/4 151/3/4
f 149/2/4 150/2/4 152/2/4
f 152/2/4 150/2/4 153/2/4
f 153/2/4 150/2/4 154/2/4
f 154/2/4 150/2/4 155/2/4
f 152/3/4 153/3/4 156/3/4
f 153/2/4 154/2/4 157/2/4
f 156/3/4 153/3/4 157/3/4
f 154/3/4 155/3/4 158/3/4
f 157/2/4 154/2/4 158/2/4
f 158/3/4 155/3/4 159/3/4
f 157/2/4 158/2/4 160/2/4
f 160/2/4 158/2/4 161/2/4
f 161/2/4 158/2/4 162/2/4
f 162/2/4 158/2/4 163/2/4
f 160/3/4 161/3/4 164/3/4
f 161/2/4 162/2/4 165/2/4
f 164/3/4 161/3/4 165/3/4
f 162/3/4 163/3/4 166/3/4
f 165/2/4 162/2/4 166/2/4
f 166/3/4 163/3/4 167/3/4
f 165/2/4 166/2/4 168/2/4
f 168/2/4 166/2/4 169/2/4
f 169/2/4 166/2/4 170/2/4
f 170/2/4 166/2/4 171/2/4
f 168/3/4 169/3/4 172/3/4
f 169/2/4 170/2/4 173/2/4
f 172/3/4 169/3/4 173/3/4
f 170/3/4 171/3/4 174/3/4
f 173/2/4 170/2/4 174/2/4
f 174/3/4 171/3/4 175/3/4
f 173/2/4 174/2/4 176/2/4
f 176/2/4 174/2/4 177/2/4
f 177/2/4 174/2/4 178/2/4
f 178/2/4 174/2/4 179/2/4
f 177/2/4 178/2/4 180/2/4
f 180/2/4 178/2/4 181/2/4
f 182/1/4 183/1/4 184/1/4
f 184/1/4 183/1/4 185/1/4
f 186/1/4 187/1/4 188/1/4
f 188/1/4 187/1/4 189/1/4
f 192/1/5 191/1/5 190/1/5
f 193/1/5 191/1/5 192/1/5
f 197/2/5 195/2/5 194/2/5
f 198/3/5 196/3/5 195/3/5
f 198/2/5 195/2/5 197/2/5
f 199/3/5 196/3/5 198/3/5
f 203/2/5 201/2/5 200/2/5
f 204/3/5 202/3/5 201/3/5
f 204/2/5 201/2/5 203/2/5
f 205/3/5 202/3/5 204/3/5
f 209/2/5 207/2/5 206/2/5
f 210/3/5 208/3/5 207/3/5
f 210/2/5 207/2/5 209/2/5
f 211/3/5 208/3/5 210/3/5
f 215/2/5 213/2/5 212/2/5
f 216/3/5 214/3/5 213/3/5
f 216/2/5 213/2/5 215/2/5
f 217/3/5 214/3/5 216/3/5
f 220/2/5 219/2/5 218/2/5
f 221/2/5 219/2/5 220/2/5
f 224/2/5 223/2/5 222/2/5
f 225/2/5 223/2/5 224/2/5
f 228/1/5 227/1/5 226/1/5
f 229/1/5 227/1/5 228/1/5
f 230/1/5 227/1/5 229/1/5
f 231/1/5 228/1/5 226/1/5
f 234/1/5 231/1/5 226/1/5
f 234/1/5 233/1/5 232/1/5
f 234/1/5 232/1/5 231/1/5
f 235/1/5 233/1/5 234/1/5
f 236/1/6 237/1/6 238/1/6
f 238/1/6 237/1/6 239/1/6
f 236/1/6 238/1/6 240/1/6
f 239/1/6 237/1/6 241/1/6
f 236/1/6 240/1/6 242/1/6
f 240/1/6 241/1/6 242/1/6
f 241/1/6 237/1/6 243/1/6
f 242/1/6 241/1/6 243/1/6
f 244/2/6 245/2/6 246/2/6
f 246/2/6 245/2/6 247/2/6
f 248/2/6 249/2/6 250/2/6
f 250/2/6 249/2/6 251/2/6
f 252/2/6 253/2/6 255/2/6
f 253/3/6 254/3/6 256/3/6
f 255/2/6 253/2/6 256/2/6
f 256/3/6 254/3/6 257/3/6
f 258/2/6 259/2/6 261/2/6
f 259/3/6 260/3/6 262/3/6
f 261/2/6 259/2/6 262/2/6
f 262/3/6 260/3/6 263/3/6
f 264/2/6 265/2/6 267/2/6
f 265/3/6 266/3/6 268/3/6
f 267/2/6 265/2/6 268/2/6
f 268/3/6 266/3/6 269/3/6
f 270/3/6 271/3/6 272/3/6
f 272/3/6 271/3/6 273/3/6
f 274/1/6 275/1/6 276/1/6
f 276/1/6 275/1/6 277/1/6
