# MagicaVoxel @ Ephtracy

# group
o 

# material
mtllib MarioBrosBotonUP.mtl
usemtl palette

# normals
vn -1 0 0
vn 1 0 0
vn 0 0 1
vn 0 0 -1
vn 0 -1 0
vn 0 1 0

# texcoords
vt 0.482422 0.5
vt 0.736328 0.5

# verts
v -1.6 0 1.6
v -1.6 0 -1.6
v -1.6 0.2 1.6
v -1.6 0.2 -1.6
v -1.5 0.2 1.5
v -1.5 0.2 -1.5
v -1.5 0.3 1.5
v -1.5 0.3 -1.5
v -1.5 0.7 -0.4
v -1.5 0.7 -0.6
v -1.5 1.2 0.5
v -1.5 1.2 -0.4
v -1.5 1.4 0.3
v -1.5 1.4 -0.4
v -1.5 2 0.3
v -1.5 2 -0.4
v -1.5 2.2 0.5
v -1.5 2.2 -0.6
v -1.4 0.3 1.4
v -1.4 0.3 -1.4
v -1.4 0.4 1.4
v -1.4 0.4 1.2
v -1.4 0.4 -1.2
v -1.4 0.4 -1.4
v -1.4 0.7 -0.4
v -1.4 0.7 -0.6
v -1.4 1.2 0.5
v -1.4 1.2 -0.4
v -1.4 1.4 0.3
v -1.4 1.4 -0.4
v -1.4 2 0.3
v -1.4 2 -0.4
v -1.4 2.2 0.5
v -1.4 2.2 -0.6
v -1.4 2.5 1.2
v -1.4 2.5 -1.2
v -1.3 0.4 1.3
v -1.3 0.4 1.2
v -1.3 0.4 -1.2
v -1.3 0.4 -1.3
v -1.3 2.5 1.2
v -1.3 2.5 -1.2
v -1.3 2.7 1.3
v -1.3 2.7 -1.3
v -1.2 0.4 1.4
v -1.2 0.4 1.3
v -1.2 0.4 -1.3
v -1.2 0.4 -1.4
v -1.2 2.5 1.4
v -1.2 2.5 1.3
v -1.2 2.5 -1.3
v -1.2 2.5 -1.4
v -1.2 2.7 1.1
v -1.2 2.7 -1.1
v -1.2 2.8 1.1
v -1.2 2.8 -1.1
v -1.1 2.8 1
v -1.1 2.8 -1
v -1.1 2.9 1
v -1.1 2.9 -1
v -0.8 2.9 0.7
v -0.8 2.9 -0.7
v -0.8 3 0.7
v -0.8 3 -0.7
v -0.6 0.7 1.5
v -0.6 0.7 1.4
v -0.6 1.2 -1.4
v -0.6 1.2 -1.5
v -0.6 2.2 1.5
v -0.6 2.2 1.4
v -0.6 2.2 -1.4
v -0.6 2.2 -1.5
v -0.5 3 0.4
v -0.5 3 -0.4
v -0.5 3.1 0.4
v -0.5 3.1 -0.4
v -0.3 3.1 0.3
v -0.3 3.1 -0.3
v -0.3 3.2 0.3
v -0.3 3.2 -0.3
v 0.3 0.7 -1.4
v 0.3 0.7 -1.5
v 0.3 1.2 -1.4
v 0.3 1.2 -1.5
v 0.3 1.4 1.5
v 0.3 1.4 1.4
v 0.3 1.4 -1.4
v 0.3 1.4 -1.5
v 0.3 2 1.5
v 0.3 2 1.4
v 0.3 2 -1.4
v 0.3 2 -1.5
v -0.4 0.7 1.5
v -0.4 0.7 1.4
v -0.4 1.2 1.5
v -0.4 1.2 1.4
v -0.4 1.4 1.5
v -0.4 1.4 1.4
v -0.4 1.4 -1.4
v -0.4 1.4 -1.5
v -0.4 2 1.5
v -0.4 2 1.4
v -0.4 2 -1.4
v -0.4 2 -1.5
v 0.3 3.1 0.3
v 0.3 3.1 -0.3
v 0.3 3.2 0.3
v 0.3 3.2 -0.3
v 0.5 0.7 -1.4
v 0.5 0.7 -1.5
v 0.5 1.2 1.5
v 0.5 1.2 1.4
v 0.5 2.2 1.5
v 0.5 2.2 1.4
v 0.5 2.2 -1.4
v 0.5 2.2 -1.5
v 0.5 3 0.4
v 0.5 3 -0.4
v 0.5 3.1 0.4
v 0.5 3.1 -0.4
v 0.8 2.9 0.7
v 0.8 2.9 -0.7
v 0.8 3 0.7
v 0.8 3 -0.7
v 1.1 2.8 1
v 1.1 2.8 -1
v 1.1 2.9 1
v 1.1 2.9 -1
v 1.2 0.4 1.4
v 1.2 0.4 1.3
v 1.2 0.4 -1.3
v 1.2 0.4 -1.4
v 1.2 2.5 1.4
v 1.2 2.5 1.3
v 1.2 2.5 -1.3
v 1.2 2.5 -1.4
v 1.2 2.7 1.1
v 1.2 2.7 -1.1
v 1.2 2.8 1.1
v 1.2 2.8 -1.1
v 1.3 0.4 1.3
v 1.3 0.4 1.2
v 1.3 0.4 -1.2
v 1.3 0.4 -1.3
v 1.3 2.5 1.2
v 1.3 2.5 -1.2
v 1.3 2.7 1.3
v 1.3 2.7 -1.3
v 1.4 0.3 1.4
v 1.4 0.3 -1.4
v 1.4 0.4 1.4
v 1.4 0.4 1.2
v 1.4 0.4 -1.2
v 1.4 0.4 -1.4
v 1.4 0.7 0.5
v 1.4 0.7 0.3
v 1.4 1.2 0.3
v 1.4 1.2 -0.6
v 1.4 1.4 0.3
v 1.4 1.4 -0.4
v 1.4 2 0.3
v 1.4 2 -0.4
v 1.4 2.2 0.5
v 1.4 2.2 -0.6
v 1.4 2.5 1.2
v 1.4 2.5 -1.2
v 1.5 0.2 1.5
v 1.5 0.2 -1.5
v 1.5 0.3 1.5
v 1.5 0.3 -1.5
v 1.5 0.7 0.5
v 1.5 0.7 0.3
v 1.5 1.2 0.3
v 1.5 1.2 -0.6
v 1.5 1.4 0.3
v 1.5 1.4 -0.4
v 1.5 2 0.3
v 1.5 2 -0.4
v 1.5 2.2 0.5
v 1.5 2.2 -0.6
v 1.6 0 1.6
v 1.6 0 -1.6
v 1.6 0.2 1.6
v 1.6 0.2 -1.6
v -1.6 0 1.6
v -1.6 0.2 1.6
v 1.6 0 1.6
v 1.6 0.2 1.6
v -1.5 0.2 1.5
v -1.5 0.3 1.5
v -0.6 0.7 1.5
v -0.6 2.2 1.5
v -0.4 0.7 1.5
v -0.4 1.2 1.5
v -0.4 1.4 1.5
v -0.4 2 1.5
v 0.3 1.4 1.5
v 0.3 2 1.5
v 0.5 1.2 1.5
v 0.5 2.2 1.5
v 1.5 0.2 1.5
v 1.5 0.3 1.5
v -1.4 0.3 1.4
v -1.4 0.4 1.4
v -1.2 0.4 1.4
v -1.2 2.5 1.4
v -0.6 0.7 1.4
v -0.6 2.2 1.4
v -0.4 0.7 1.4
v -0.4 1.2 1.4
v -0.4 1.4 1.4
v -0.4 2 1.4
v 0.3 1.4 1.4
v 0.3 2 1.4
v 0.5 1.2 1.4
v 0.5 2.2 1.4
v 1.2 0.4 1.4
v 1.2 2.5 1.4
v 1.4 0.3 1.4
v 1.4 0.4 1.4
v -1.3 0.4 1.3
v -1.3 2.7 1.3
v -1.2 0.4 1.3
v -1.2 2.5 1.3
v 1.2 0.4 1.3
v 1.2 2.5 1.3
v 1.3 0.4 1.3
v 1.3 2.7 1.3
v -1.4 0.4 1.2
v -1.4 2.5 1.2
v -1.3 0.4 1.2
v -1.3 2.5 1.2
v 1.3 0.4 1.2
v 1.3 2.5 1.2
v 1.4 0.4 1.2
v 1.4 2.5 1.2
v -1.2 2.7 1.1
v -1.2 2.8 1.1
v 1.2 2.7 1.1
v 1.2 2.8 1.1
v -1.1 2.8 1
v -1.1 2.9 1
v 1.1 2.8 1
v 1.1 2.9 1
v -0.8 2.9 0.7
v -0.8 3 0.7
v 0.8 2.9 0.7
v 0.8 3 0.7
v -1.5 1.2 0.5
v -1.5 2.2 0.5
v -1.4 1.2 0.5
v -1.4 2.2 0.5
v 1.4 0.7 0.5
v 1.4 2.2 0.5
v 1.5 0.7 0.5
v 1.5 2.2 0.5
v -0.5 3 0.4
v -0.5 3.1 0.4
v 0.5 3 0.4
v 0.5 3.1 0.4
v -0.3 3.1 0.3
v -0.3 3.2 0.3
v 0.3 3.1 0.3
v 0.3 3.2 0.3
v -1.5 0.7 -0.4
v -1.5 1.2 -0.4
v -1.5 1.4 -0.4
v -1.5 2 -0.4
v -1.4 0.7 -0.4
v -1.4 1.2 -0.4
v -1.4 1.4 -0.4
v -1.4 2 -0.4
v 1.4 1.4 -0.4
v 1.4 2 -0.4
v 1.5 1.4 -0.4
v 1.5 2 -0.4
v -1.5 1.4 0.3
v -1.5 2 0.3
v -1.4 1.4 0.3
v -1.4 2 0.3
v 1.4 0.7 0.3
v 1.4 1.2 0.3
v 1.4 1.4 0.3
v 1.4 2 0.3
v 1.5 0.7 0.3
v 1.5 1.2 0.3
v 1.5 1.4 0.3
v 1.5 2 0.3
v -0.3 3.1 -0.3
v -0.3 3.2 -0.3
v 0.3 3.1 -0.3
v 0.3 3.2 -0.3
v -0.5 3 -0.4
v -0.5 3.1 -0.4
v 0.5 3 -0.4
v 0.5 3.1 -0.4
v -1.5 0.7 -0.6
v -1.5 2.2 -0.6
v -1.4 0.7 -0.6
v -1.4 2.2 -0.6
v 1.4 1.2 -0.6
v 1.4 2.2 -0.6
v 1.5 1.2 -0.6
v 1.5 2.2 -0.6
v -0.8 2.9 -0.7
v -0.8 3 -0.7
v 0.8 2.9 -0.7
v 0.8 3 -0.7
v -1.1 2.8 -1
v -1.1 2.9 -1
v 1.1 2.8 -1
v 1.1 2.9 -1
v -1.2 2.7 -1.1
v -1.2 2.8 -1.1
v 1.2 2.7 -1.1
v 1.2 2.8 -1.1
v -1.4 0.4 -1.2
v -1.4 2.5 -1.2
v -1.3 0.4 -1.2
v -1.3 2.5 -1.2
v 1.3 0.4 -1.2
v 1.3 2.5 -1.2
v 1.4 0.4 -1.2
v 1.4 2.5 -1.2
v -1.3 0.4 -1.3
v -1.3 2.7 -1.3
v -1.2 0.4 -1.3
v -1.2 2.5 -1.3
v 1.2 0.4 -1.3
v 1.2 2.5 -1.3
v 1.3 0.4 -1.3
v 1.3 2.7 -1.3
v -1.4 0.3 -1.4
v -1.4 0.4 -1.4
v -1.2 0.4 -1.4
v -1.2 2.5 -1.4
v -0.6 1.2 -1.4
v -0.6 2.2 -1.4
v -0.4 1.4 -1.4
v -0.4 2 -1.4
v 0.3 0.7 -1.4
v 0.3 1.2 -1.4
v 0.3 1.4 -1.4
v 0.3 2 -1.4
v 0.5 0.7 -1.4
v 0.5 2.2 -1.4
v 1.2 0.4 -1.4
v 1.2 2.5 -1.4
v 1.4 0.3 -1.4
v 1.4 0.4 -1.4
v -1.5 0.2 -1.5
v -1.5 0.3 -1.5
v -0.6 1.2 -1.5
v -0.6 2.2 -1.5
v -0.4 1.4 -1.5
v -0.4 2 -1.5
v 0.3 0.7 -1.5
v 0.3 1.2 -1.5
v 0.3 1.4 -1.5
v 0.3 2 -1.5
v 0.5 0.7 -1.5
v 0.5 2.2 -1.5
v 1.5 0.2 -1.5
v 1.5 0.3 -1.5
v -1.6 0 -1.6
v -1.6 0.2 -1.6
v 1.6 0 -1.6
v 1.6 0.2 -1.6
v -1.6 0 1.6
v 1.6 0 1.6
v -1.6 0 -1.6
v 1.6 0 -1.6
v -0.6 0.7 1.5
v -0.4 0.7 1.5
v -0.6 0.7 1.4
v -0.4 0.7 1.4
v 1.4 0.7 0.5
v 1.5 0.7 0.5
v 1.4 0.7 0.3
v 1.5 0.7 0.3
v -1.5 0.7 -0.4
v -1.4 0.7 -0.4
v -1.5 0.7 -0.6
v -1.4 0.7 -0.6
v 0.3 0.7 -1.4
v 0.5 0.7 -1.4
v 0.3 0.7 -1.5
v 0.5 0.7 -1.5
v -0.4 1.2 1.5
v 0.5 1.2 1.5
v -0.4 1.2 1.4
v 0.5 1.2 1.4
v -1.5 1.2 0.5
v -1.4 1.2 0.5
v 1.4 1.2 0.3
v 1.5 1.2 0.3
v -1.5 1.2 -0.4
v -1.4 1.2 -0.4
v 1.4 1.2 -0.6
v 1.5 1.2 -0.6
v -0.6 1.2 -1.4
v 0.3 1.2 -1.4
v -0.6 1.2 -1.5
v 0.3 1.2 -1.5
v -0.4 2 1.5
v 0.3 2 1.5
v -0.4 2 1.4
v 0.3 2 1.4
v -1.5 2 0.3
v -1.4 2 0.3
v 1.4 2 0.3
v 1.5 2 0.3
v -1.5 2 -0.4
v -1.4 2 -0.4
v 1.4 2 -0.4
v 1.5 2 -0.4
v -0.4 2 -1.4
v 0.3 2 -1.4
v -0.4 2 -1.5
v 0.3 2 -1.5
v -1.6 0.2 1.6
v 1.6 0.2 1.6
v -1.5 0.2 1.5
v 1.5 0.2 1.5
v -1.5 0.2 -1.5
v 1.5 0.2 -1.5
v -1.6 0.2 -1.6
v 1.6 0.2 -1.6
v -1.5 0.3 1.5
v 1.5 0.3 1.5
v -1.4 0.3 1.4
v 1.4 0.3 1.4
v -1.4 0.3 -1.4
v 1.4 0.3 -1.4
v -1.5 0.3 -1.5
v 1.5 0.3 -1.5
v -1.4 0.4 1.4
v -1.2 0.4 1.4
v 1.2 0.4 1.4
v 1.4 0.4 1.4
v -1.3 0.4 1.3
v -1.2 0.4 1.3
v 1.2 0.4 1.3
v 1.3 0.4 1.3
v -1.4 0.4 1.2
v -1.3 0.4 1.2
v 1.3 0.4 1.2
v 1.4 0.4 1.2
v -1.4 0.4 -1.2
v -1.3 0.4 -1.2
v 1.3 0.4 -1.2
v 1.4 0.4 -1.2
v -1.3 0.4 -1.3
v -1.2 0.4 -1.3
v 1.2 0.4 -1.3
v 1.3 0.4 -1.3
v -1.4 0.4 -1.4
v -1.2 0.4 -1.4
v 1.2 0.4 -1.4
v 1.4 0.4 -1.4
v -0.4 1.4 1.5
v 0.3 1.4 1.5
v -0.4 1.4 1.4
v 0.3 1.4 1.4
v -1.5 1.4 0.3
v -1.4 1.4 0.3
v 1.4 1.4 0.3
v 1.5 1.4 0.3
v -1.5 1.4 -0.4
v -1.4 1.4 -0.4
v 1.4 1.4 -0.4
v 1.5 1.4 -0.4
v -0.4 1.4 -1.4
v 0.3 1.4 -1.4
v -0.4 1.4 -1.5
v 0.3 1.4 -1.5
v -0.6 2.2 1.5
v 0.5 2.2 1.5
v -0.6 2.2 1.4
v 0.5 2.2 1.4
v -1.5 2.2 0.5
v -1.4 2.2 0.5
v 1.4 2.2 0.5
v 1.5 2.2 0.5
v -1.5 2.2 -0.6
v -1.4 2.2 -0.6
v 1.4 2.2 -0.6
v 1.5 2.2 -0.6
v -0.6 2.2 -1.4
v 0.5 2.2 -1.4
v -0.6 2.2 -1.5
v 0.5 2.2 -1.5
v -1.2 2.5 1.4
v 1.2 2.5 1.4
v -1.2 2.5 1.3
v 1.2 2.5 1.3
v -1.4 2.5 1.2
v -1.3 2.5 1.2
v 1.3 2.5 1.2
v 1.4 2.5 1.2
v -1.4 2.5 -1.2
v -1.3 2.5 -1.2
v 1.3 2.5 -1.2
v 1.4 2.5 -1.2
v -1.2 2.5 -1.3
v 1.2 2.5 -1.3
v -1.2 2.5 -1.4
v 1.2 2.5 -1.4
v -1.3 2.7 1.3
v 1.3 2.7 1.3
v -1.2 2.7 1.1
v 1.2 2.7 1.1
v -1.2 2.7 -1.1
v 1.2 2.7 -1.1
v -1.3 2.7 -1.3
v 1.3 2.7 -1.3
v -1.2 2.8 1.1
v 1.2 2.8 1.1
v -1.1 2.8 1
v 1.1 2.8 1
v -1.1 2.8 -1
v 1.1 2.8 -1
v -1.2 2.8 -1.1
v 1.2 2.8 -1.1
v -1.1 2.9 1
v 1.1 2.9 1
v -0.8 2.9 0.7
v 0.8 2.9 0.7
v -0.8 2.9 -0.7
v 0.8 2.9 -0.7
v -1.1 2.9 -1
v 1.1 2.9 -1
v -0.8 3 0.7
v 0.8 3 0.7
v -0.5 3 0.4
v 0.5 3 0.4
v -0.5 3 -0.4
v 0.5 3 -0.4
v -0.8 3 -0.7
v 0.8 3 -0.7
v -0.5 3.1 0.4
v 0.5 3.1 0.4
v -0.3 3.1 0.3
v 0.3 3.1 0.3
v -0.3 3.1 -0.3
v 0.3 3.1 -0.3
v -0.5 3.1 -0.4
v 0.5 3.1 -0.4
v -0.3 3.2 0.3
v 0.3 3.2 0.3
v -0.3 3.2 -0.3
v 0.3 3.2 -0.3

# faces
f 3/1/1 2/1/1 1/1/1
f 4/1/1 2/1/1 3/1/1
f 7/1/1 6/1/1 5/1/1
f 8/1/1 6/1/1 7/1/1
f 12/1/1 10/1/1 9/1/1
f 13/1/1 12/1/1 11/1/1
f 14/1/1 10/1/1 12/1/1
f 14/1/1 12/1/1 13/1/1
f 15/1/1 13/1/1 11/1/1
f 16/1/1 10/1/1 14/1/1
f 17/1/1 15/1/1 11/1/1
f 17/1/1 16/1/1 15/1/1
f 18/1/1 10/1/1 16/1/1
f 18/1/1 16/1/1 17/1/1
f 21/1/1 20/1/1 19/1/1
f 22/1/1 20/1/1 21/1/1
f 23/1/1 20/1/1 22/1/1
f 24/1/1 20/1/1 23/1/1
f 25/2/1 23/2/1 22/2/1
f 26/2/1 23/2/1 25/2/1
f 27/2/1 25/2/1 22/2/1
f 28/2/1 25/2/1 27/2/1
f 31/2/1 30/2/1 29/2/1
f 32/2/1 30/2/1 31/2/1
f 33/2/1 27/2/1 22/2/1
f 34/2/1 23/2/1 26/2/1
f 35/2/1 33/2/1 22/2/1
f 35/2/1 34/2/1 33/2/1
f 36/2/1 23/2/1 34/2/1
f 36/2/1 34/2/1 35/2/1
f 41/2/1 38/2/1 37/2/1
f 42/2/1 40/2/1 39/2/1
f 43/2/1 41/2/1 37/2/1
f 43/2/1 42/2/1 41/2/1
f 44/2/1 40/2/1 42/2/1
f 44/2/1 42/2/1 43/2/1
f 49/2/1 46/2/1 45/2/1
f 50/2/1 46/2/1 49/2/1
f 51/2/1 48/2/1 47/2/1
f 52/2/1 48/2/1 51/2/1
f 55/2/1 54/2/1 53/2/1
f 56/2/1 54/2/1 55/2/1
f 59/2/1 58/2/1 57/2/1
f 60/2/1 58/2/1 59/2/1
f 63/2/1 62/2/1 61/2/1
f 64/2/1 62/2/1 63/2/1
f 69/1/1 66/1/1 65/1/1
f 70/1/1 66/1/1 69/1/1
f 71/1/1 68/1/1 67/1/1
f 72/1/1 68/1/1 71/1/1
f 75/2/1 74/2/1 73/2/1
f 76/2/1 74/2/1 75/2/1
f 79/2/1 78/2/1 77/2/1
f 80/2/1 78/2/1 79/2/1
f 83/1/1 82/1/1 81/1/1
f 84/1/1 82/1/1 83/1/1
f 89/1/1 86/1/1 85/1/1
f 90/1/1 86/1/1 89/1/1
f 91/1/1 88/1/1 87/1/1
f 92/1/1 88/1/1 91/1/1
f 93/1/2 94/1/2 95/1/2
f 95/1/2 94/1/2 96/1/2
f 97/1/2 98/1/2 101/1/2
f 101/1/2 98/1/2 102/1/2
f 99/1/2 100/1/2 103/1/2
f 103/1/2 100/1/2 104/1/2
f 105/2/2 106/2/2 107/2/2
f 107/2/2 106/2/2 108/2/2
f 111/1/2 112/1/2 113/1/2
f 113/1/2 112/1/2 114/1/2
f 109/1/2 110/1/2 115/1/2
f 115/1/2 110/1/2 116/1/2
f 117/2/2 118/2/2 119/2/2
f 119/2/2 118/2/2 120/2/2
f 121/2/2 122/2/2 123/2/2
f 123/2/2 122/2/2 124/2/2
f 125/2/2 126/2/2 127/2/2
f 127/2/2 126/2/2 128/2/2
f 129/2/2 130/2/2 133/2/2
f 133/2/2 130/2/2 134/2/2
f 131/2/2 132/2/2 135/2/2
f 135/2/2 132/2/2 136/2/2
f 137/2/2 138/2/2 139/2/2
f 139/2/2 138/2/2 140/2/2
f 141/2/2 142/2/2 145/2/2
f 143/2/2 144/2/2 146/2/2
f 141/2/2 145/2/2 147/2/2
f 145/2/2 146/2/2 147/2/2
f 146/2/2 144/2/2 148/2/2
f 147/2/2 146/2/2 148/2/2
f 149/1/2 150/1/2 151/1/2
f 151/1/2 150/1/2 152/1/2
f 152/1/2 150/1/2 153/1/2
f 153/1/2 150/1/2 154/1/2
f 152/2/2 153/2/2 155/2/2
f 155/2/2 153/2/2 156/2/2
f 156/2/2 153/2/2 157/2/2
f 157/2/2 153/2/2 158/2/2
f 159/2/2 160/2/2 161/2/2
f 161/2/2 160/2/2 162/2/2
f 152/2/2 155/2/2 163/2/2
f 158/2/2 153/2/2 164/2/2
f 152/2/2 163/2/2 165/2/2
f 163/2/2 164/2/2 165/2/2
f 164/2/2 153/2/2 166/2/2
f 165/2/2 164/2/2 166/2/2
f 167/1/2 168/1/2 169/1/2
f 169/1/2 168/1/2 170/1/2
f 171/1/2 172/1/2 173/1/2
f 171/1/2 173/1/2 175/1/2
f 173/1/2 174/1/2 175/1/2
f 175/1/2 174/1/2 176/1/2
f 171/1/2 175/1/2 177/1/2
f 176/1/2 174/1/2 178/1/2
f 171/1/2 177/1/2 179/1/2
f 177/1/2 178/1/2 179/1/2
f 178/1/2 174/1/2 180/1/2
f 179/1/2 178/1/2 180/1/2
f 181/1/2 182/1/2 183/1/2
f 183/1/2 182/1/2 184/1/2
f 187/1/3 186/1/3 185/1/3
f 188/1/3 186/1/3 187/1/3
f 193/1/3 192/1/3 191/1/3
f 194/1/3 192/1/3 193/1/3
f 195/1/3 192/1/3 194/1/3
f 196/1/3 192/1/3 195/1/3
f 197/1/3 195/1/3 194/1/3
f 198/1/3 192/1/3 196/1/3
f 199/1/3 197/1/3 194/1/3
f 199/1/3 198/1/3 197/1/3
f 200/1/3 192/1/3 198/1/3
f 200/1/3 198/1/3 199/1/3
f 201/1/3 190/1/3 189/1/3
f 202/1/3 190/1/3 201/1/3
f 205/1/3 204/1/3 203/1/3
f 207/2/3 206/2/3 205/2/3
f 208/2/3 206/2/3 207/2/3
f 209/2/3 207/2/3 205/2/3
f 213/2/3 212/2/3 211/2/3
f 214/2/3 212/2/3 213/2/3
f 215/2/3 210/2/3 209/2/3
f 216/2/3 206/2/3 208/2/3
f 217/1/3 205/1/3 203/1/3
f 217/2/3 216/2/3 215/2/3
f 217/2/3 215/2/3 209/2/3
f 217/2/3 209/2/3 205/2/3
f 218/2/3 206/2/3 216/2/3
f 218/2/3 216/2/3 217/2/3
f 219/1/3 217/1/3 203/1/3
f 220/1/3 217/1/3 219/1/3
f 223/2/3 222/2/3 221/2/3
f 224/2/3 222/2/3 223/2/3
f 226/2/3 222/2/3 224/2/3
f 227/2/3 226/2/3 225/2/3
f 228/2/3 222/2/3 226/2/3
f 228/2/3 226/2/3 227/2/3
f 231/2/3 230/2/3 229/2/3
f 232/2/3 230/2/3 231/2/3
f 235/2/3 234/2/3 233/2/3
f 236/2/3 234/2/3 235/2/3
f 239/2/3 238/2/3 237/2/3
f 240/2/3 238/2/3 239/2/3
f 243/2/3 242/2/3 241/2/3
f 244/2/3 242/2/3 243/2/3
f 247/2/3 246/2/3 245/2/3
f 248/2/3 246/2/3 247/2/3
f 251/1/3 250/1/3 249/1/3
f 252/1/3 250/1/3 251/1/3
f 255/1/3 254/1/3 253/1/3
f 256/1/3 254/1/3 255/1/3
f 259/2/3 258/2/3 257/2/3
f 260/2/3 258/2/3 259/2/3
f 263/2/3 262/2/3 261/2/3
f 264/2/3 262/2/3 263/2/3
f 269/1/3 266/1/3 265/1/3
f 270/1/3 266/1/3 269/1/3
f 271/1/3 268/1/3 267/1/3
f 272/1/3 268/1/3 271/1/3
f 275/1/3 274/1/3 273/1/3
f 276/1/3 274/1/3 275/1/3
f 277/1/4 278/1/4 279/1/4
f 279/1/4 278/1/4 280/1/4
f 281/1/4 282/1/4 285/1/4
f 285/1/4 282/1/4 286/1/4
f 283/1/4 284/1/4 287/1/4
f 287/1/4 284/1/4 288/1/4
f 289/2/4 290/2/4 291/2/4
f 291/2/4 290/2/4 292/2/4
f 293/2/4 294/2/4 295/2/4
f 295/2/4 294/2/4 296/2/4
f 297/1/4 298/1/4 299/1/4
f 299/1/4 298/1/4 300/1/4
f 301/1/4 302/1/4 303/1/4
f 303/1/4 302/1/4 304/1/4
f 305/2/4 306/2/4 307/2/4
f 307/2/4 306/2/4 308/2/4
f 309/2/4 310/2/4 311/2/4
f 311/2/4 310/2/4 312/2/4
f 313/2/4 314/2/4 315/2/4
f 315/2/4 314/2/4 316/2/4
f 317/2/4 318/2/4 319/2/4
f 319/2/4 318/2/4 320/2/4
f 321/2/4 322/2/4 323/2/4
f 323/2/4 322/2/4 324/2/4
f 325/2/4 326/2/4 327/2/4
f 327/2/4 326/2/4 328/2/4
f 328/2/4 326/2/4 330/2/4
f 329/2/4 330/2/4 331/2/4
f 330/2/4 326/2/4 332/2/4
f 331/2/4 330/2/4 332/2/4
f 333/1/4 334/1/4 335/1/4
f 335/2/4 336/2/4 337/2/4
f 337/2/4 336/2/4 338/2/4
f 335/2/4 337/2/4 341/2/4
f 341/2/4 337/2/4 342/2/4
f 339/2/4 340/2/4 343/2/4
f 343/2/4 340/2/4 344/2/4
f 335/2/4 341/2/4 345/2/4
f 338/2/4 336/2/4 346/2/4
f 333/1/4 335/1/4 347/1/4
f 345/2/4 346/2/4 347/2/4
f 335/2/4 345/2/4 347/2/4
f 346/2/4 336/2/4 348/2/4
f 347/2/4 346/2/4 348/2/4
f 333/1/4 347/1/4 349/1/4
f 349/1/4 347/1/4 350/1/4
f 353/1/4 354/1/4 355/1/4
f 355/1/4 354/1/4 356/1/4
f 353/1/4 355/1/4 358/1/4
f 358/1/4 355/1/4 359/1/4
f 356/1/4 354/1/4 360/1/4
f 358/1/4 359/1/4 361/1/4
f 359/1/4 360/1/4 361/1/4
f 357/1/4 358/1/4 361/1/4
f 360/1/4 354/1/4 362/1/4
f 361/1/4 360/1/4 362/1/4
f 351/1/4 352/1/4 363/1/4
f 363/1/4 352/1/4 364/1/4
f 365/1/4 366/1/4 367/1/4
f 367/1/4 366/1/4 368/1/4
f 371/1/5 370/1/5 369/1/5
f 372/1/5 370/1/5 371/1/5
f 375/1/5 374/1/5 373/1/5
f 376/1/5 374/1/5 375/1/5
f 379/1/5 378/1/5 377/1/5
f 380/1/5 378/1/5 379/1/5
f 383/1/5 382/1/5 381/1/5
f 384/1/5 382/1/5 383/1/5
f 387/1/5 386/1/5 385/1/5
f 388/1/5 386/1/5 387/1/5
f 391/1/5 390/1/5 389/1/5
f 392/1/5 390/1/5 391/1/5
f 397/1/5 394/1/5 393/1/5
f 398/1/5 394/1/5 397/1/5
f 399/1/5 396/1/5 395/1/5
f 400/1/5 396/1/5 399/1/5
f 403/1/5 402/1/5 401/1/5
f 404/1/5 402/1/5 403/1/5
f 407/1/5 406/1/5 405/1/5
f 408/1/5 406/1/5 407/1/5
f 413/1/5 410/1/5 409/1/5
f 414/1/5 410/1/5 413/1/5
f 415/1/5 412/1/5 411/1/5
f 416/1/5 412/1/5 415/1/5
f 419/1/5 418/1/5 417/1/5
f 420/1/5 418/1/5 419/1/5
f 421/1/6 422/1/6 423/1/6
f 423/1/6 422/1/6 424/1/6
f 421/1/6 423/1/6 425/1/6
f 424/1/6 422/1/6 426/1/6
f 421/1/6 425/1/6 427/1/6
f 425/1/6 426/1/6 427/1/6
f 426/1/6 422/1/6 428/1/6
f 427/1/6 426/1/6 428/1/6
f 429/1/6 430/1/6 431/1/6
f 431/1/6 430/1/6 432/1/6
f 429/1/6 431/1/6 433/1/6
f 432/1/6 430/1/6 434/1/6
f 429/1/6 433/1/6 435/1/6
f 433/1/6 434/1/6 435/1/6
f 434/1/6 430/1/6 436/1/6
f 435/1/6 434/1/6 436/1/6
f 437/1/6 438/1/6 441/1/6
f 441/1/6 438/1/6 442/1/6
f 439/1/6 440/1/6 443/1/6
f 443/1/6 440/1/6 444/1/6
f 437/1/6 441/1/6 445/1/6
f 445/1/6 441/1/6 446/1/6
f 444/1/6 440/1/6 447/1/6
f 447/1/6 440/1/6 448/1/6
f 449/1/6 450/1/6 453/1/6
f 451/1/6 452/1/6 456/1/6
f 453/1/6 454/1/6 457/1/6
f 449/1/6 453/1/6 457/1/6
f 457/1/6 454/1/6 458/1/6
f 455/1/6 456/1/6 459/1/6
f 456/1/6 452/1/6 460/1/6
f 459/1/6 456/1/6 460/1/6
f 461/1/6 462/1/6 463/1/6
f 463/1/6 462/1/6 464/1/6
f 465/1/6 466/1/6 469/1/6
f 469/1/6 466/1/6 470/1/6
f 467/1/6 468/1/6 471/1/6
f 471/1/6 468/1/6 472/1/6
f 473/1/6 474/1/6 475/1/6
f 475/1/6 474/1/6 476/1/6
f 477/1/6 478/1/6 479/1/6
f 479/1/6 478/1/6 480/1/6
f 481/1/6 482/1/6 485/1/6
f 485/1/6 482/1/6 486/1/6
f 483/1/6 484/1/6 487/1/6
f 487/1/6 484/1/6 488/1/6
f 489/1/6 490/1/6 491/1/6
f 491/1/6 490/1/6 492/1/6
f 493/2/6 494/2/6 495/2/6
f 495/2/6 494/2/6 496/2/6
f 497/2/6 498/2/6 501/2/6
f 501/2/6 498/2/6 502/2/6
f 499/2/6 500/2/6 503/2/6
f 503/2/6 500/2/6 504/2/6
f 505/2/6 506/2/6 507/2/6
f 507/2/6 506/2/6 508/2/6
f 509/2/6 510/2/6 511/2/6
f 511/2/6 510/2/6 512/2/6
f 509/2/6 511/2/6 513/2/6
f 512/2/6 510/2/6 514/2/6
f 509/2/6 513/2/6 515/2/6
f 513/2/6 514/2/6 515/2/6
f 514/2/6 510/2/6 516/2/6
f 515/2/6 514/2/6 516/2/6
f 517/2/6 518/2/6 519/2/6
f 519/2/6 518/2/6 520/2/6
f 517/2/6 519/2/6 521/2/6
f 520/2/6 518/2/6 522/2/6
f 517/2/6 521/2/6 523/2/6
f 521/2/6 522/2/6 523/2/6
f 522/2/6 518/2/6 524/2/6
f 523/2/6 522/2/6 524/2/6
f 525/2/6 526/2/6 527/2/6
f 527/2/6 526/2/6 528/2/6
f 525/2/6 527/2/6 529/2/6
f 528/2/6 526/2/6 530/2/6
f 525/2/6 529/2/6 531/2/6
f 529/2/6 530/2/6 531/2/6
f 530/2/6 526/2/6 532/2/6
f 531/2/6 530/2/6 532/2/6
f 533/2/6 534/2/6 535/2/6
f 535/2/6 534/2/6 536/2/6
f 533/2/6 535/2/6 537/2/6
f 536/2/6 534/2/6 538/2/6
f 533/2/6 537/2/6 539/2/6
f 537/2/6 538/2/6 539/2/6
f 538/2/6 534/2/6 540/2/6
f 539/2/6 538/2/6 540/2/6
f 541/2/6 542/2/6 543/2/6
f 543/2/6 542/2/6 544/2/6
f 541/2/6 543/2/6 545/2/6
f 544/2/6 542/2/6 546/2/6
f 541/2/6 545/2/6 547/2/6
f 545/2/6 546/2/6 547/2/6
f 546/2/6 542/2/6 548/2/6
f 547/2/6 546/2/6 548/2/6
f 549/2/6 550/2/6 551/2/6
f 551/2/6 550/2/6 552/2/6
