# MagicaVoxel @ Ephtracy

# group
o 

# material
mtllib ExtrasSmallRedFlower.mtl
usemtl palette

# normals
vn -1 0 0
vn 1 0 0
vn 0 0 1
vn 0 0 -1
vn 0 -1 0
vn 0 1 0

# texcoords
vt 0.146484 0.5
vt 0.556641 0.5

# verts
v -0.1 0.5 0.1
v -0.1 0.5 0
v -0.1 0.6 0.1
v -0.1 0.6 0
v 0 0.1 0.1
v 0 0.1 0
v 0 0.2 0.1
v 0 0.2 0
v 0 0.3 0.2
v 0 0.3 0.1
v 0 0.4 0.2
v 0 0.4 0.1
v 0 0.4 0
v 0 0.5 0.2
v 0 0.5 0.1
v 0 0.5 0
v 0 0.5 -0.1
v 0 0.6 0.2
v 0 0.6 0.1
v 0 0.6 0
v 0 0.6 -0.1
v 0.1 0 0.1
v 0.1 0 0
v 0.1 0.1 0.1
v 0.1 0.1 0
v 0.1 0.1 -0.1
v 0.1 0.2 0
v 0.1 0.3 0
v 0.1 0.3 -0.1
v 0.2 0.2 0.1
v 0.2 0.2 0
v 0.2 0.3 0.1
v 0.2 0.3 0
v 0.2 0.4 0.1
v 0.2 0.4 0
v 0.1 0.1 0.1
v 0.1 0.1 0
v 0.1 0.2 0.1
v 0.1 0.2 0
v 0.1 0.4 0.1
v 0.1 0.4 0
v 0.1 0.5 0.2
v 0.1 0.5 0.1
v 0.1 0.5 0
v 0.1 0.5 -0.1
v 0.1 0.6 0.2
v 0.1 0.6 0.1
v 0.1 0.6 0
v 0.1 0.6 -0.1
v 0.2 0 0.1
v 0.2 0 0
v 0.2 0.1 0.1
v 0.2 0.1 0
v 0.2 0.1 -0.1
v 0.2 0.2 0
v 0.2 0.3 0.2
v 0.2 0.3 0.1
v 0.2 0.3 0
v 0.2 0.3 -0.1
v 0.2 0.4 0.2
v 0.2 0.4 0.1
v 0.2 0.5 0.1
v 0.2 0.5 0
v 0.2 0.6 0.1
v 0.2 0.6 0
v 0.3 0.2 0.1
v 0.3 0.2 0
v 0.3 0.4 0.1
v 0.3 0.4 0
v 0 0.3 0.2
v 0 0.4 0.2
v 0 0.5 0.2
v 0 0.6 0.2
v 0.1 0.5 0.2
v 0.1 0.6 0.2
v 0.2 0.3 0.2
v 0.2 0.4 0.2
v -0.1 0.5 0.1
v -0.1 0.6 0.1
v 0 0.1 0.1
v 0 0.2 0.1
v 0 0.4 0.1
v 0 0.5 0.1
v 0 0.6 0.1
v 0.1 0 0.1
v 0.1 0.1 0.1
v 0.1 0.2 0.1
v 0.1 0.4 0.1
v 0.1 0.5 0.1
v 0.1 0.6 0.1
v 0.2 0 0.1
v 0.2 0.1 0.1
v 0.2 0.2 0.1
v 0.2 0.3 0.1
v 0.2 0.4 0.1
v 0.2 0.5 0.1
v 0.2 0.6 0.1
v 0.3 0.2 0.1
v 0.3 0.4 0.1
v 0.1 0.1 0
v 0.1 0.2 0
v 0.1 0.3 0
v 0.2 0.1 0
v 0.2 0.2 0
v 0.2 0.3 0
v 0 0.3 0.1
v 0 0.4 0.1
v 0.1 0.4 0.1
v 0.2 0.3 0.1
v 0.2 0.4 0.1
v -0.1 0.5 0
v -0.1 0.6 0
v 0 0.1 0
v 0 0.2 0
v 0 0.4 0
v 0 0.5 0
v 0 0.6 0
v 0.1 0 0
v 0.1 0.1 0
v 0.1 0.2 0
v 0.1 0.4 0
v 0.1 0.5 0
v 0.1 0.6 0
v 0.2 0 0
v 0.2 0.1 0
v 0.2 0.2 0
v 0.2 0.3 0
v 0.2 0.4 0
v 0.2 0.5 0
v 0.2 0.6 0
v 0.3 0.2 0
v 0.3 0.4 0
v 0 0.5 -0.1
v 0 0.6 -0.1
v 0.1 0.1 -0.1
v 0.1 0.3 -0.1
v 0.1 0.5 -0.1
v 0.1 0.6 -0.1
v 0.2 0.1 -0.1
v 0.2 0.3 -0.1
v 0.1 0 0.1
v 0.2 0 0.1
v 0.1 0 0
v 0.2 0 0
v 0 0.1 0.1
v 0.1 0.1 0.1
v 0 0.1 0
v 0.1 0.1 0
v 0.2 0.1 0
v 0.1 0.1 -0.1
v 0.2 0.1 -0.1
v 0.2 0.2 0.1
v 0.3 0.2 0.1
v 0.2 0.2 0
v 0.3 0.2 0
v 0 0.3 0.2
v 0.2 0.3 0.2
v 0 0.3 0.1
v 0.2 0.3 0.1
v 0 0.4 0.1
v 0.1 0.4 0.1
v 0 0.4 0
v 0.1 0.4 0
v 0 0.5 0.2
v 0.1 0.5 0.2
v -0.1 0.5 0.1
v 0 0.5 0.1
v 0.1 0.5 0.1
v 0.2 0.5 0.1
v -0.1 0.5 0
v 0 0.5 0
v 0.1 0.5 0
v 0.2 0.5 0
v 0 0.5 -0.1
v 0.1 0.5 -0.1
v 0.1 0.1 0.1
v 0.2 0.1 0.1
v 0.1 0.1 0
v 0.2 0.1 0
v 0 0.2 0.1
v 0.1 0.2 0.1
v 0 0.2 0
v 0.1 0.2 0
v 0.1 0.3 0
v 0.2 0.3 0
v 0.1 0.3 -0.1
v 0.2 0.3 -0.1
v 0 0.4 0.2
v 0.2 0.4 0.2
v 0 0.4 0.1
v 0.1 0.4 0.1
v 0.2 0.4 0.1
v 0.3 0.4 0.1
v 0.2 0.4 0
v 0.3 0.4 0
v 0 0.6 0.2
v 0.1 0.6 0.2
v -0.1 0.6 0.1
v 0 0.6 0.1
v 0.1 0.6 0.1
v 0.2 0.6 0.1
v -0.1 0.6 0
v 0 0.6 0
v 0.1 0.6 0
v 0.2 0.6 0
v 0 0.6 -0.1
v 0.1 0.6 -0.1

# faces
f 3/1/1 2/1/1 1/1/1
f 4/1/1 2/1/1 3/1/1
f 7/2/1 6/2/1 5/2/1
f 8/2/1 6/2/1 7/2/1
f 11/2/1 10/2/1 9/2/1
f 12/2/1 10/2/1 11/2/1
f 15/2/1 13/2/1 12/2/1
f 16/2/1 13/2/1 15/2/1
f 18/1/1 15/1/1 14/1/1
f 19/1/1 15/1/1 18/1/1
f 20/1/1 17/1/1 16/1/1
f 21/1/1 17/1/1 20/1/1
f 24/2/1 23/2/1 22/2/1
f 25/2/1 23/2/1 24/2/1
f 27/2/1 26/2/1 25/2/1
f 28/2/1 26/2/1 27/2/1
f 29/2/1 26/2/1 28/2/1
f 32/2/1 31/2/1 30/2/1
f 33/2/1 31/2/1 32/2/1
f 34/2/1 33/2/1 32/2/1
f 35/2/1 33/2/1 34/2/1
f 36/2/2 37/2/2 38/2/2
f 38/2/2 37/2/2 39/2/2
f 40/2/2 41/2/2 43/2/2
f 43/2/2 41/2/2 44/2/2
f 42/1/2 43/1/2 46/1/2
f 46/1/2 43/1/2 47/1/2
f 44/1/2 45/1/2 48/1/2
f 48/1/2 45/1/2 49/1/2
f 50/2/2 51/2/2 52/2/2
f 52/2/2 51/2/2 53/2/2
f 53/2/2 54/2/2 55/2/2
f 55/2/2 54/2/2 58/2/2
f 58/2/2 54/2/2 59/2/2
f 56/2/2 57/2/2 60/2/2
f 60/2/2 57/2/2 61/2/2
f 62/1/2 63/1/2 64/1/2
f 64/1/2 63/1/2 65/1/2
f 66/2/2 67/2/2 68/2/2
f 68/2/2 67/2/2 69/2/2
f 74/1/3 73/1/3 72/1/3
f 75/1/3 73/1/3 74/1/3
f 76/2/3 71/2/3 70/2/3
f 77/2/3 71/2/3 76/2/3
f 83/1/3 79/1/3 78/1/3
f 84/1/3 79/1/3 83/1/3
f 86/2/3 81/2/3 80/2/3
f 87/2/3 81/2/3 86/2/3
f 88/2/3 83/2/3 82/2/3
f 89/2/3 83/2/3 88/2/3
f 91/2/3 86/2/3 85/2/3
f 92/2/3 86/2/3 91/2/3
f 96/1/3 90/1/3 89/1/3
f 97/1/3 90/1/3 96/1/3
f 98/2/3 95/2/3 94/2/3
f 98/2/3 94/2/3 93/2/3
f 99/2/3 95/2/3 98/2/3
f 103/2/3 101/2/3 100/2/3
f 103/2/3 102/2/3 101/2/3
f 104/2/3 102/2/3 103/2/3
f 105/2/3 102/2/3 104/2/3
f 106/2/4 107/2/4 108/2/4
f 106/2/4 108/2/4 109/2/4
f 109/2/4 108/2/4 110/2/4
f 111/1/4 112/1/4 116/1/4
f 116/1/4 112/1/4 117/1/4
f 113/2/4 114/2/4 119/2/4
f 119/2/4 114/2/4 120/2/4
f 115/2/4 116/2/4 121/2/4
f 121/2/4 116/2/4 122/2/4
f 118/2/4 119/2/4 124/2/4
f 124/2/4 119/2/4 125/2/4
f 122/1/4 123/1/4 129/1/4
f 129/1/4 123/1/4 130/1/4
f 127/2/4 128/2/4 131/2/4
f 126/2/4 127/2/4 131/2/4
f 131/2/4 128/2/4 132/2/4
f 133/1/4 134/1/4 137/1/4
f 137/1/4 134/1/4 138/1/4
f 135/2/4 136/2/4 139/2/4
f 139/2/4 136/2/4 140/2/4
f 143/2/5 142/2/5 141/2/5
f 144/2/5 142/2/5 143/2/5
f 147/2/5 146/2/5 145/2/5
f 148/2/5 146/2/5 147/2/5
f 150/2/5 149/2/5 148/2/5
f 151/2/5 149/2/5 150/2/5
f 154/2/5 153/2/5 152/2/5
f 155/2/5 153/2/5 154/2/5
f 158/2/5 157/2/5 156/2/5
f 159/2/5 157/2/5 158/2/5
f 162/2/5 161/2/5 160/2/5
f 163/2/5 161/2/5 162/2/5
f 167/1/5 165/1/5 164/1/5
f 168/1/5 165/1/5 167/1/5
f 170/1/5 167/1/5 166/1/5
f 171/1/5 167/1/5 170/1/5
f 172/1/5 169/1/5 168/1/5
f 173/1/5 169/1/5 172/1/5
f 174/1/5 172/1/5 171/1/5
f 175/1/5 172/1/5 174/1/5
f 176/2/6 177/2/6 178/2/6
f 178/2/6 177/2/6 179/2/6
f 180/2/6 181/2/6 182/2/6
f 182/2/6 181/2/6 183/2/6
f 184/2/6 185/2/6 186/2/6
f 186/2/6 185/2/6 187/2/6
f 188/2/6 189/2/6 190/2/6
f 190/2/6 189/2/6 191/2/6
f 191/2/6 189/2/6 192/2/6
f 192/2/6 193/2/6 194/2/6
f 194/2/6 193/2/6 195/2/6
f 196/1/6 197/1/6 199/1/6
f 199/1/6 197/1/6 200/1/6
f 198/1/6 199/1/6 202/1/6
f 200/1/6 201/1/6 202/1/6
f 199/1/6 200/1/6 202/1/6
f 202/1/6 201/1/6 203/1/6
f 203/1/6 201/1/6 204/1/6
f 204/1/6 201/1/6 205/1/6
f 203/1/6 204/1/6 206/1/6
f 206/1/6 204/1/6 207/1/6
