# MagicaVoxel @ Ephtracy

# group
o 

# material
mtllib ExtrasInsect.mtl
usemtl palette

# normals
vn -1 0 0
vn 1 0 0
vn 0 0 1
vn 0 0 -1
vn 0 -1 0
vn 0 1 0

# texcoords
vt 0.146484 0.5
vt 0.958984 0.5
vt 0.994141 0.5

# verts
v -0.5 0.1 0.3
v -0.5 0.1 -0.3
v -0.5 0.3 0.3
v -0.5 0.3 0.2
v -0.5 0.3 -0.2
v -0.5 0.3 -0.3
v -0.5 0.4 0.3
v -0.5 0.4 0.2
v -0.5 0.4 -0.2
v -0.5 0.4 -0.3
v -0.4 0 0.6
v -0.4 0 0.5
v -0.4 0 -0.5
v -0.4 0 -0.6
v -0.4 0.1 0.6
v -0.4 0.1 0.5
v -0.4 0.1 -0.5
v -0.4 0.1 -0.6
v -0.3 0.1 0.5
v -0.3 0.1 0.3
v -0.3 0.1 -0.3
v -0.3 0.1 -0.5
v -0.3 0.2 0.5
v -0.3 0.2 0.3
v -0.3 0.2 -0.3
v -0.3 0.2 -0.5
v -0.1 0.3 0.2
v -0.1 0.3 0.1
v -0.1 0.3 -0.1
v -0.1 0.3 -0.2
v -0.1 0.4 0.2
v -0.1 0.4 0.1
v -0.1 0.4 -0.1
v -0.1 0.4 -0.2
v 0 0 0.6
v 0 0 0.5
v 0 0 -0.5
v 0 0 -0.6
v 0 0.1 0.6
v 0 0.1 0.5
v 0 0.1 0.4
v 0 0.1 -0.4
v 0 0.1 -0.5
v 0 0.1 -0.6
v 0 0.2 0.5
v 0 0.2 0.4
v 0 0.2 -0.4
v 0 0.2 -0.5
v 0.4 0 0.6
v 0.4 0 0.5
v 0.4 0 -0.5
v 0.4 0 -0.6
v 0.4 0.1 0.6
v 0.4 0.1 0.5
v 0.4 0.1 0.4
v 0.4 0.1 -0.4
v 0.4 0.1 -0.5
v 0.4 0.1 -0.6
v 0.4 0.2 0.5
v 0.4 0.2 0.4
v 0.4 0.2 -0.4
v 0.4 0.2 -0.5
v -0.2 0 0.6
v -0.2 0 0.5
v -0.2 0 -0.5
v -0.2 0 -0.6
v -0.2 0.1 0.6
v -0.2 0.1 0.5
v -0.2 0.1 0.4
v -0.2 0.1 -0.4
v -0.2 0.1 -0.5
v -0.2 0.1 -0.6
v -0.2 0.2 0.5
v -0.2 0.2 0.4
v -0.2 0.2 -0.4
v -0.2 0.2 -0.5
v -0.2 0.3 0.3
v -0.2 0.3 0.2
v -0.2 0.3 0.1
v -0.2 0.3 -0.1
v -0.2 0.3 -0.2
v -0.2 0.3 -0.3
v -0.2 0.4 0.3
v -0.2 0.4 -0.3
v 0.2 0 0.6
v 0.2 0 0.5
v 0.2 0 -0.5
v 0.2 0 -0.6
v 0.2 0.1 0.6
v 0.2 0.1 0.5
v 0.2 0.1 0.4
v 0.2 0.1 -0.4
v 0.2 0.1 -0.5
v 0.2 0.1 -0.6
v 0.2 0.2 0.5
v 0.2 0.2 0.4
v 0.2 0.2 -0.4
v 0.2 0.2 -0.5
v 0.3 0.3 0.2
v 0.3 0.3 0.1
v 0.3 0.3 -0.1
v 0.3 0.3 -0.2
v 0.3 0.4 0.2
v 0.3 0.4 0.1
v 0.3 0.4 -0.1
v 0.3 0.4 -0.2
v 0.4 0.2 0.3
v 0.4 0.2 0.2
v 0.4 0.2 0.1
v 0.4 0.2 -0.1
v 0.4 0.2 -0.2
v 0.4 0.2 -0.3
v 0.4 0.3 0.3
v 0.4 0.3 0.2
v 0.4 0.3 0.1
v 0.4 0.3 -0.1
v 0.4 0.3 -0.2
v 0.4 0.3 -0.3
v 0.5 0.1 0.5
v 0.5 0.1 0.3
v 0.5 0.1 0.2
v 0.5 0.1 0.1
v 0.5 0.1 -0.1
v 0.5 0.1 -0.2
v 0.5 0.1 -0.3
v 0.5 0.1 -0.5
v 0.5 0.2 0.5
v 0.5 0.2 0.3
v 0.5 0.2 0.2
v 0.5 0.2 0.1
v 0.5 0.2 -0.1
v 0.5 0.2 -0.2
v 0.5 0.2 -0.3
v 0.5 0.2 -0.5
v 0.6 0 0.6
v 0.6 0 0.5
v 0.6 0 -0.5
v 0.6 0 -0.6
v 0.6 0.1 0.6
v 0.6 0.1 0.5
v 0.6 0.1 -0.5
v 0.6 0.1 -0.6
v -0.4 0 0.6
v -0.4 0.1 0.6
v -0.2 0 0.6
v -0.2 0.1 0.6
v 0 0 0.6
v 0 0.1 0.6
v 0.2 0 0.6
v 0.2 0.1 0.6
v 0.4 0 0.6
v 0.4 0.1 0.6
v 0.6 0 0.6
v 0.6 0.1 0.6
v -0.3 0.1 0.5
v -0.3 0.2 0.5
v -0.2 0.1 0.5
v -0.2 0.2 0.5
v 0 0.1 0.5
v 0 0.2 0.5
v 0.2 0.1 0.5
v 0.2 0.2 0.5
v 0.4 0.1 0.5
v 0.4 0.2 0.5
v 0.5 0.1 0.5
v 0.5 0.2 0.5
v -0.2 0.1 0.4
v -0.2 0.2 0.4
v -0.1 0.1 0.4
v -0.1 0.2 0.4
v 0 0.1 0.4
v 0 0.2 0.4
v 0.2 0.1 0.4
v 0.2 0.2 0.4
v 0.3 0.1 0.4
v 0.3 0.2 0.4
v 0.4 0.1 0.4
v 0.4 0.2 0.4
v -0.5 0.1 0.3
v -0.5 0.3 0.3
v -0.5 0.4 0.3
v -0.4 0.3 0.3
v -0.4 0.4 0.3
v -0.3 0.1 0.3
v -0.3 0.2 0.3
v -0.2 0.2 0.3
v -0.2 0.3 0.3
v -0.2 0.4 0.3
v -0.1 0.2 0.3
v -0.1 0.3 0.3
v 0 0.2 0.3
v 0 0.3 0.3
v 0.2 0.2 0.3
v 0.2 0.3 0.3
v 0.3 0.2 0.3
v 0.3 0.3 0.3
v 0.4 0.2 0.3
v 0.4 0.3 0.3
v -0.1 0.3 0.2
v -0.1 0.4 0.2
v 0 0.3 0.2
v 0 0.4 0.2
v 0.2 0.3 0.2
v 0.2 0.4 0.2
v 0.3 0.3 0.2
v 0.3 0.4 0.2
v -0.4 0 -0.5
v -0.4 0.1 -0.5
v -0.3 0.1 -0.5
v -0.2 0 -0.5
v -0.2 0.1 -0.5
v 0 0 -0.5
v 0 0.1 -0.5
v 0.2 0 -0.5
v 0.2 0.1 -0.5
v 0.4 0 -0.5
v 0.4 0.1 -0.5
v 0.5 0.1 -0.5
v 0.6 0 -0.5
v 0.6 0.1 -0.5
v -0.4 0 0.5
v -0.4 0.1 0.5
v -0.3 0.1 0.5
v -0.2 0 0.5
v -0.2 0.1 0.5
v 0 0 0.5
v 0 0.1 0.5
v 0.2 0 0.5
v 0.2 0.1 0.5
v 0.4 0 0.5
v 0.4 0.1 0.5
v 0.5 0.1 0.5
v 0.6 0 0.5
v 0.6 0.1 0.5
v -0.1 0.3 -0.2
v -0.1 0.4 -0.2
v 0 0.3 -0.2
v 0 0.4 -0.2
v 0.2 0.3 -0.2
v 0.2 0.4 -0.2
v 0.3 0.3 -0.2
v 0.3 0.4 -0.2
v -0.5 0.1 -0.3
v -0.5 0.3 -0.3
v -0.5 0.4 -0.3
v -0.4 0.3 -0.3
v -0.4 0.4 -0.3
v -0.3 0.1 -0.3
v -0.3 0.2 -0.3
v -0.2 0.2 -0.3
v -0.2 0.3 -0.3
v -0.2 0.4 -0.3
v -0.1 0.2 -0.3
v -0.1 0.3 -0.3
v 0 0.2 -0.3
v 0 0.3 -0.3
v 0.2 0.2 -0.3
v 0.2 0.3 -0.3
v 0.3 0.2 -0.3
v 0.3 0.3 -0.3
v 0.4 0.2 -0.3
v 0.4 0.3 -0.3
v -0.2 0.1 -0.4
v -0.2 0.2 -0.4
v -0.1 0.1 -0.4
v -0.1 0.2 -0.4
v 0 0.1 -0.4
v 0 0.2 -0.4
v 0.2 0.1 -0.4
v 0.2 0.2 -0.4
v 0.3 0.1 -0.4
v 0.3 0.2 -0.4
v 0.4 0.1 -0.4
v 0.4 0.2 -0.4
v -0.3 0.1 -0.5
v -0.3 0.2 -0.5
v -0.2 0.1 -0.5
v -0.2 0.2 -0.5
v 0 0.1 -0.5
v 0 0.2 -0.5
v 0.2 0.1 -0.5
v 0.2 0.2 -0.5
v 0.4 0.1 -0.5
v 0.4 0.2 -0.5
v 0.5 0.1 -0.5
v 0.5 0.2 -0.5
v -0.4 0 -0.6
v -0.4 0.1 -0.6
v -0.2 0 -0.6
v -0.2 0.1 -0.6
v 0 0 -0.6
v 0 0.1 -0.6
v 0.2 0 -0.6
v 0.2 0.1 -0.6
v 0.4 0 -0.6
v 0.4 0.1 -0.6
v 0.6 0 -0.6
v 0.6 0.1 -0.6
v -0.4 0 0.6
v -0.2 0 0.6
v 0 0 0.6
v 0.2 0 0.6
v 0.4 0 0.6
v 0.6 0 0.6
v -0.4 0 0.5
v -0.2 0 0.5
v 0 0 0.5
v 0.2 0 0.5
v 0.4 0 0.5
v 0.6 0 0.5
v -0.4 0 -0.5
v -0.2 0 -0.5
v 0 0 -0.5
v 0.2 0 -0.5
v 0.4 0 -0.5
v 0.6 0 -0.5
v -0.4 0 -0.6
v -0.2 0 -0.6
v 0 0 -0.6
v 0.2 0 -0.6
v 0.4 0 -0.6
v 0.6 0 -0.6
v -0.3 0.1 0.5
v -0.2 0.1 0.5
v 0 0.1 0.5
v 0.2 0.1 0.5
v 0.4 0.1 0.5
v 0.5 0.1 0.5
v -0.2 0.1 0.4
v -0.1 0.1 0.4
v 0 0.1 0.4
v 0.2 0.1 0.4
v 0.3 0.1 0.4
v 0.4 0.1 0.4
v -0.5 0.1 0.3
v -0.3 0.1 0.3
v -0.2 0.1 0.3
v -0.1 0.1 0.3
v 0 0.1 0.3
v 0.2 0.1 0.3
v 0.3 0.1 0.3
v 0.4 0.1 0.3
v 0.5 0.1 0.3
v 0.4 0.1 0.2
v 0.5 0.1 0.2
v 0.4 0.1 0.1
v 0.5 0.1 0.1
v 0.4 0.1 -0.1
v 0.5 0.1 -0.1
v 0.4 0.1 -0.2
v 0.5 0.1 -0.2
v -0.5 0.1 -0.3
v -0.3 0.1 -0.3
v -0.2 0.1 -0.3
v -0.1 0.1 -0.3
v 0 0.1 -0.3
v 0.2 0.1 -0.3
v 0.3 0.1 -0.3
v 0.4 0.1 -0.3
v 0.5 0.1 -0.3
v -0.2 0.1 -0.4
v -0.1 0.1 -0.4
v 0 0.1 -0.4
v 0.2 0.1 -0.4
v 0.3 0.1 -0.4
v 0.4 0.1 -0.4
v -0.3 0.1 -0.5
v -0.2 0.1 -0.5
v 0 0.1 -0.5
v 0.2 0.1 -0.5
v 0.4 0.1 -0.5
v 0.5 0.1 -0.5
v -0.4 0.1 0.6
v -0.2 0.1 0.6
v 0 0.1 0.6
v 0.2 0.1 0.6
v 0.4 0.1 0.6
v 0.6 0.1 0.6
v -0.4 0.1 0.5
v -0.3 0.1 0.5
v -0.2 0.1 0.5
v 0 0.1 0.5
v 0.2 0.1 0.5
v 0.4 0.1 0.5
v 0.5 0.1 0.5
v 0.6 0.1 0.5
v -0.4 0.1 -0.5
v -0.3 0.1 -0.5
v -0.2 0.1 -0.5
v 0 0.1 -0.5
v 0.2 0.1 -0.5
v 0.4 0.1 -0.5
v 0.5 0.1 -0.5
v 0.6 0.1 -0.5
v -0.4 0.1 -0.6
v -0.2 0.1 -0.6
v 0 0.1 -0.6
v 0.2 0.1 -0.6
v 0.4 0.1 -0.6
v 0.6 0.1 -0.6
v -0.3 0.2 0.5
v -0.2 0.2 0.5
v 0 0.2 0.5
v 0.2 0.2 0.5
v 0.4 0.2 0.5
v 0.5 0.2 0.5
v -0.2 0.2 0.4
v -0.1 0.2 0.4
v 0 0.2 0.4
v 0.2 0.2 0.4
v 0.3 0.2 0.4
v 0.4 0.2 0.4
v -0.3 0.2 0.3
v -0.2 0.2 0.3
v -0.1 0.2 0.3
v 0 0.2 0.3
v 0.2 0.2 0.3
v 0.3 0.2 0.3
v 0.4 0.2 0.3
v 0.5 0.2 0.3
v 0.4 0.2 0.2
v 0.5 0.2 0.2
v 0.4 0.2 0.1
v 0.5 0.2 0.1
v 0.4 0.2 -0.1
v 0.5 0.2 -0.1
v 0.4 0.2 -0.2
v 0.5 0.2 -0.2
v -0.3 0.2 -0.3
v -0.2 0.2 -0.3
v -0.1 0.2 -0.3
v 0 0.2 -0.3
v 0.2 0.2 -0.3
v 0.3 0.2 -0.3
v 0.4 0.2 -0.3
v 0.5 0.2 -0.3
v -0.2 0.2 -0.4
v -0.1 0.2 -0.4
v 0 0.2 -0.4
v 0.2 0.2 -0.4
v 0.3 0.2 -0.4
v 0.4 0.2 -0.4
v -0.3 0.2 -0.5
v -0.2 0.2 -0.5
v 0 0.2 -0.5
v 0.2 0.2 -0.5
v 0.4 0.2 -0.5
v 0.5 0.2 -0.5
v -0.2 0.3 0.3
v -0.1 0.3 0.3
v 0 0.3 0.3
v 0.2 0.3 0.3
v 0.3 0.3 0.3
v 0.4 0.3 0.3
v -0.2 0.3 0.2
v -0.1 0.3 0.2
v 0 0.3 0.2
v 0.2 0.3 0.2
v 0.3 0.3 0.2
v 0.4 0.3 0.2
v -0.2 0.3 0.1
v -0.1 0.3 0.1
v 0.3 0.3 0.1
v 0.4 0.3 0.1
v -0.2 0.3 -0.1
v -0.1 0.3 -0.1
v 0.3 0.3 -0.1
v 0.4 0.3 -0.1
v -0.2 0.3 -0.2
v -0.1 0.3 -0.2
v 0 0.3 -0.2
v 0.2 0.3 -0.2
v 0.3 0.3 -0.2
v 0.4 0.3 -0.2
v -0.2 0.3 -0.3
v -0.1 0.3 -0.3
v 0 0.3 -0.3
v 0.2 0.3 -0.3
v 0.3 0.3 -0.3
v 0.4 0.3 -0.3
v -0.5 0.4 0.3
v -0.4 0.4 0.3
v -0.2 0.4 0.3
v -0.5 0.4 0.2
v -0.4 0.4 0.2
v -0.1 0.4 0.2
v 0 0.4 0.2
v 0.2 0.4 0.2
v 0.3 0.4 0.2
v -0.1 0.4 0.1
v 0 0.4 0.1
v 0.2 0.4 0.1
v 0.3 0.4 0.1
v -0.1 0.4 -0.1
v 0 0.4 -0.1
v 0.2 0.4 -0.1
v 0.3 0.4 -0.1
v -0.5 0.4 -0.2
v -0.4 0.4 -0.2
v -0.1 0.4 -0.2
v 0 0.4 -0.2
v 0.2 0.4 -0.2
v 0.3 0.4 -0.2
v -0.5 0.4 -0.3
v -0.4 0.4 -0.3
v -0.2 0.4 -0.3

# faces
f 3/3/1 2/3/1 1/3/1
f 4/3/1 2/3/1 3/3/1
f 5/3/1 2/3/1 4/3/1
f 6/3/1 2/3/1 5/3/1
f 7/2/1 4/2/1 3/2/1
f 8/3/1 5/3/1 4/3/1
f 8/2/1 4/2/1 7/2/1
f 9/2/1 6/2/1 5/2/1
f 9/3/1 5/3/1 8/3/1
f 10/2/1 6/2/1 9/2/1
f 15/3/1 12/3/1 11/3/1
f 16/3/1 12/3/1 15/3/1
f 17/3/1 14/3/1 13/3/1
f 18/3/1 14/3/1 17/3/1
f 23/3/1 20/3/1 19/3/1
f 24/3/1 20/3/1 23/3/1
f 25/3/1 22/3/1 21/3/1
f 26/3/1 22/3/1 25/3/1
f 31/3/1 28/3/1 27/3/1
f 32/1/1 29/1/1 28/1/1
f 32/3/1 28/3/1 31/3/1
f 33/3/1 30/3/1 29/3/1
f 33/1/1 29/1/1 32/1/1
f 34/3/1 30/3/1 33/3/1
f 39/3/1 36/3/1 35/3/1
f 40/3/1 36/3/1 39/3/1
f 43/3/1 38/3/1 37/3/1
f 44/3/1 38/3/1 43/3/1
f 45/3/1 41/3/1 40/3/1
f 46/3/1 41/3/1 45/3/1
f 47/3/1 43/3/1 42/3/1
f 48/3/1 43/3/1 47/3/1
f 53/3/1 50/3/1 49/3/1
f 54/3/1 50/3/1 53/3/1
f 57/3/1 52/3/1 51/3/1
f 58/3/1 52/3/1 57/3/1
f 59/3/1 55/3/1 54/3/1
f 60/3/1 55/3/1 59/3/1
f 61/3/1 57/3/1 56/3/1
f 62/3/1 57/3/1 61/3/1
f 63/3/2 64/3/2 67/3/2
f 67/3/2 64/3/2 68/3/2
f 65/3/2 66/3/2 71/3/2
f 71/3/2 66/3/2 72/3/2
f 68/3/2 69/3/2 73/3/2
f 73/3/2 69/3/2 74/3/2
f 70/3/2 71/3/2 75/3/2
f 75/3/2 71/3/2 76/3/2
f 77/3/2 78/3/2 83/3/2
f 81/3/2 82/3/2 83/3/2
f 80/3/2 81/3/2 83/3/2
f 79/3/2 80/3/2 83/3/2
f 78/3/2 79/3/2 83/3/2
f 83/3/2 82/3/2 84/3/2
f 85/3/2 86/3/2 89/3/2
f 89/3/2 86/3/2 90/3/2
f 87/3/2 88/3/2 93/3/2
f 93/3/2 88/3/2 94/3/2
f 90/3/2 91/3/2 95/3/2
f 95/3/2 91/3/2 96/3/2
f 92/3/2 93/3/2 97/3/2
f 97/3/2 93/3/2 98/3/2
f 99/3/2 100/3/2 103/3/2
f 100/1/2 101/1/2 104/1/2
f 103/3/2 100/3/2 104/3/2
f 101/3/2 102/3/2 105/3/2
f 104/1/2 101/1/2 105/1/2
f 105/3/2 102/3/2 106/3/2
f 107/3/2 108/3/2 113/3/2
f 108/1/2 109/1/2 114/1/2
f 113/3/2 108/3/2 114/3/2
f 109/3/2 110/3/2 115/3/2
f 114/1/2 109/1/2 115/1/2
f 110/1/2 111/1/2 116/1/2
f 115/3/2 110/3/2 116/3/2
f 111/3/2 112/3/2 117/3/2
f 116/1/2 111/1/2 117/1/2
f 117/3/2 112/3/2 118/3/2
f 119/3/2 120/3/2 127/3/2
f 120/1/2 121/1/2 128/1/2
f 127/3/2 120/3/2 128/3/2
f 121/3/2 122/3/2 129/3/2
f 128/1/2 121/1/2 129/1/2
f 122/1/2 123/1/2 130/1/2
f 129/3/2 122/3/2 130/3/2
f 123/3/2 124/3/2 131/3/2
f 130/1/2 123/1/2 131/1/2
f 124/1/2 125/1/2 132/1/2
f 131/3/2 124/3/2 132/3/2
f 125/3/2 126/3/2 133/3/2
f 132/1/2 125/1/2 133/1/2
f 133/3/2 126/3/2 134/3/2
f 135/3/2 136/3/2 139/3/2
f 139/3/2 136/3/2 140/3/2
f 137/3/2 138/3/2 141/3/2
f 141/3/2 138/3/2 142/3/2
f 145/3/3 144/3/3 143/3/3
f 146/3/3 144/3/3 145/3/3
f 149/3/3 148/3/3 147/3/3
f 150/3/3 148/3/3 149/3/3
f 153/3/3 152/3/3 151/3/3
f 154/3/3 152/3/3 153/3/3
f 157/3/3 156/3/3 155/3/3
f 158/3/3 156/3/3 157/3/3
f 161/3/3 160/3/3 159/3/3
f 162/3/3 160/3/3 161/3/3
f 165/3/3 164/3/3 163/3/3
f 166/3/3 164/3/3 165/3/3
f 169/1/3 168/1/3 167/1/3
f 170/1/3 168/1/3 169/1/3
f 171/3/3 170/3/3 169/3/3
f 172/3/3 170/3/3 171/3/3
f 175/3/3 174/3/3 173/3/3
f 176/3/3 174/3/3 175/3/3
f 177/1/3 176/1/3 175/1/3
f 178/1/3 176/1/3 177/1/3
f 182/3/3 180/3/3 179/3/3
f 182/2/3 181/2/3 180/2/3
f 183/2/3 181/2/3 182/2/3
f 184/3/3 182/3/3 179/3/3
f 184/3/3 183/3/3 182/3/3
f 185/3/3 183/3/3 184/3/3
f 186/3/3 183/3/3 185/3/3
f 187/3/3 183/3/3 186/3/3
f 188/3/3 183/3/3 187/3/3
f 189/3/3 187/3/3 186/3/3
f 190/3/3 187/3/3 189/3/3
f 191/1/3 190/1/3 189/1/3
f 192/1/3 190/1/3 191/1/3
f 193/3/3 192/3/3 191/3/3
f 194/3/3 192/3/3 193/3/3
f 195/1/3 194/1/3 193/1/3
f 196/1/3 194/1/3 195/1/3
f 197/3/3 196/3/3 195/3/3
f 198/3/3 196/3/3 197/3/3
f 201/3/3 200/3/3 199/3/3
f 202/3/3 200/3/3 201/3/3
f 203/1/3 202/1/3 201/1/3
f 204/1/3 202/1/3 203/1/3
f 205/3/3 204/3/3 203/3/3
f 206/3/3 204/3/3 205/3/3
f 209/3/3 208/3/3 207/3/3
f 210/3/3 209/3/3 207/3/3
f 211/3/3 209/3/3 210/3/3
f 214/3/3 213/3/3 212/3/3
f 215/3/3 213/3/3 214/3/3
f 218/3/3 217/3/3 216/3/3
f 219/3/3 218/3/3 216/3/3
f 220/3/3 218/3/3 219/3/3
f 221/3/4 222/3/4 223/3/4
f 221/3/4 223/3/4 224/3/4
f 224/3/4 223/3/4 225/3/4
f 226/3/4 227/3/4 228/3/4
f 228/3/4 227/3/4 229/3/4
f 230/3/4 231/3/4 232/3/4
f 230/3/4 232/3/4 233/3/4
f 233/3/4 232/3/4 234/3/4
f 235/3/4 236/3/4 237/3/4
f 237/3/4 236/3/4 238/3/4
f 237/1/4 238/1/4 239/1/4
f 239/1/4 238/1/4 240/1/4
f 239/3/4 240/3/4 241/3/4
f 241/3/4 240/3/4 242/3/4
f 243/3/4 244/3/4 246/3/4
f 244/2/4 245/2/4 246/2/4
f 246/2/4 245/2/4 247/2/4
f 243/3/4 246/3/4 248/3/4
f 246/3/4 247/3/4 248/3/4
f 248/3/4 247/3/4 249/3/4
f 249/3/4 247/3/4 250/3/4
f 250/3/4 247/3/4 251/3/4
f 251/3/4 247/3/4 252/3/4
f 250/3/4 251/3/4 253/3/4
f 253/3/4 251/3/4 254/3/4
f 253/1/4 254/1/4 255/1/4
f 255/1/4 254/1/4 256/1/4
f 255/3/4 256/3/4 257/3/4
f 257/3/4 256/3/4 258/3/4
f 257/1/4 258/1/4 259/1/4
f 259/1/4 258/1/4 260/1/4
f 259/3/4 260/3/4 261/3/4
f 261/3/4 260/3/4 262/3/4
f 263/1/4 264/1/4 265/1/4
f 265/1/4 264/1/4 266/1/4
f 265/3/4 266/3/4 267/3/4
f 267/3/4 266/3/4 268/3/4
f 269/3/4 270/3/4 271/3/4
f 271/3/4 270/3/4 272/3/4
f 271/1/4 272/1/4 273/1/4
f 273/1/4 272/1/4 274/1/4
f 275/3/4 276/3/4 277/3/4
f 277/3/4 276/3/4 278/3/4
f 279/3/4 280/3/4 281/3/4
f 281/3/4 280/3/4 282/3/4
f 283/3/4 284/3/4 285/3/4
f 285/3/4 284/3/4 286/3/4
f 287/3/4 288/3/4 289/3/4
f 289/3/4 288/3/4 290/3/4
f 291/3/4 292/3/4 293/3/4
f 293/3/4 292/3/4 294/3/4
f 295/3/4 296/3/4 297/3/4
f 297/3/4 296/3/4 298/3/4
f 305/3/5 300/3/5 299/3/5
f 306/3/5 300/3/5 305/3/5
f 307/3/5 302/3/5 301/3/5
f 308/3/5 302/3/5 307/3/5
f 309/3/5 304/3/5 303/3/5
f 310/3/5 304/3/5 309/3/5
f 317/3/5 312/3/5 311/3/5
f 318/3/5 312/3/5 317/3/5
f 319/3/5 314/3/5 313/3/5
f 320/3/5 314/3/5 319/3/5
f 321/3/5 316/3/5 315/3/5
f 322/3/5 316/3/5 321/3/5
f 329/3/5 324/3/5 323/3/5
f 331/3/5 326/3/5 325/3/5
f 332/3/5 326/3/5 331/3/5
f 334/3/5 328/3/5 327/3/5
f 336/3/5 329/3/5 323/3/5
f 337/1/5 330/1/5 329/1/5
f 337/3/5 329/3/5 336/3/5
f 338/3/5 331/3/5 330/3/5
f 338/1/5 330/1/5 337/1/5
f 339/1/5 332/1/5 331/1/5
f 339/3/5 331/3/5 338/3/5
f 340/3/5 333/3/5 332/3/5
f 340/1/5 332/1/5 339/1/5
f 341/1/5 334/1/5 333/1/5
f 341/3/5 333/3/5 340/3/5
f 342/3/5 328/3/5 334/3/5
f 342/1/5 334/1/5 341/1/5
f 343/3/5 328/3/5 342/3/5
f 344/1/5 339/1/5 338/1/5
f 344/1/5 340/1/5 339/1/5
f 344/1/5 343/1/5 342/1/5
f 344/1/5 342/1/5 341/1/5
f 344/1/5 337/1/5 336/1/5
f 344/1/5 341/1/5 340/1/5
f 344/1/5 338/1/5 337/1/5
f 345/1/5 343/1/5 344/1/5
f 346/1/5 344/1/5 336/1/5
f 346/3/5 345/3/5 344/3/5
f 347/3/5 345/3/5 346/3/5
f 348/1/5 346/1/5 336/1/5
f 348/1/5 347/1/5 346/1/5
f 349/1/5 347/1/5 348/1/5
f 350/1/5 348/1/5 336/1/5
f 350/3/5 349/3/5 348/3/5
f 351/3/5 349/3/5 350/3/5
f 352/3/5 336/3/5 335/3/5
f 353/1/5 350/1/5 336/1/5
f 353/3/5 336/3/5 352/3/5
f 353/1/5 351/1/5 350/1/5
f 354/1/5 351/1/5 353/1/5
f 355/1/5 351/1/5 354/1/5
f 356/1/5 351/1/5 355/1/5
f 357/1/5 351/1/5 356/1/5
f 358/1/5 351/1/5 357/1/5
f 359/1/5 351/1/5 358/1/5
f 360/1/5 351/1/5 359/1/5
f 361/3/5 354/3/5 353/3/5
f 361/1/5 355/1/5 354/1/5
f 362/3/5 356/3/5 355/3/5
f 362/1/5 355/1/5 361/1/5
f 363/1/5 357/1/5 356/1/5
f 363/3/5 356/3/5 362/3/5
f 364/3/5 358/3/5 357/3/5
f 364/1/5 357/1/5 363/1/5
f 365/1/5 359/1/5 358/1/5
f 365/3/5 358/3/5 364/3/5
f 366/3/5 360/3/5 359/3/5
f 366/1/5 359/1/5 365/1/5
f 367/3/5 361/3/5 353/3/5
f 368/3/5 361/3/5 367/3/5
f 369/3/5 364/3/5 363/3/5
f 370/3/5 364/3/5 369/3/5
f 371/3/5 360/3/5 366/3/5
f 372/3/5 360/3/5 371/3/5
f 373/3/6 374/3/6 379/3/6
f 379/3/6 374/3/6 380/3/6
f 380/3/6 374/3/6 381/3/6
f 375/3/6 376/3/6 382/3/6
f 382/3/6 376/3/6 383/3/6
f 377/3/6 378/3/6 384/3/6
f 384/3/6 378/3/6 385/3/6
f 385/3/6 378/3/6 386/3/6
f 387/3/6 388/3/6 395/3/6
f 388/3/6 389/3/6 395/3/6
f 395/3/6 389/3/6 396/3/6
f 390/3/6 391/3/6 397/3/6
f 397/3/6 391/3/6 398/3/6
f 393/3/6 394/3/6 399/3/6
f 392/3/6 393/3/6 399/3/6
f 399/3/6 394/3/6 400/3/6
f 401/3/6 402/3/6 407/3/6
f 403/3/6 404/3/6 409/3/6
f 409/3/6 404/3/6 410/3/6
f 405/3/6 406/3/6 412/3/6
f 401/3/6 407/3/6 413/3/6
f 407/1/6 408/1/6 414/1/6
f 413/3/6 407/3/6 414/3/6
f 408/3/6 409/3/6 415/3/6
f 414/1/6 408/1/6 415/1/6
f 409/1/6 410/1/6 416/1/6
f 415/3/6 409/3/6 416/3/6
f 410/3/6 411/3/6 417/3/6
f 416/1/6 410/1/6 417/1/6
f 411/1/6 412/1/6 418/1/6
f 417/3/6 411/3/6 418/3/6
f 412/3/6 406/3/6 419/3/6
f 418/1/6 412/1/6 419/1/6
f 419/3/6 406/3/6 420/3/6
f 419/1/6 420/1/6 421/1/6
f 421/1/6 420/1/6 422/1/6
f 421/3/6 422/3/6 423/3/6
f 423/3/6 422/3/6 424/3/6
f 423/1/6 424/1/6 425/1/6
f 425/1/6 424/1/6 426/1/6
f 425/3/6 426/3/6 427/3/6
f 427/3/6 426/3/6 428/3/6
f 427/1/6 428/1/6 435/1/6
f 435/1/6 428/1/6 436/1/6
f 429/3/6 430/3/6 437/3/6
f 430/1/6 431/1/6 437/1/6
f 431/3/6 432/3/6 438/3/6
f 437/1/6 431/1/6 438/1/6
f 432/1/6 433/1/6 439/1/6
f 438/3/6 432/3/6 439/3/6
f 433/3/6 434/3/6 440/3/6
f 439/1/6 433/1/6 440/1/6
f 434/1/6 435/1/6 441/1/6
f 440/3/6 434/3/6 441/3/6
f 435/3/6 436/3/6 442/3/6
f 441/1/6 435/1/6 442/1/6
f 429/3/6 437/3/6 443/3/6
f 443/3/6 437/3/6 444/3/6
f 439/3/6 440/3/6 445/3/6
f 445/3/6 440/3/6 446/3/6
f 442/3/6 436/3/6 447/3/6
f 447/3/6 436/3/6 448/3/6
f 449/3/6 450/3/6 455/3/6
f 450/1/6 451/1/6 456/1/6
f 455/3/6 450/3/6 456/3/6
f 451/3/6 452/3/6 457/3/6
f 456/1/6 451/1/6 457/1/6
f 452/1/6 453/1/6 458/1/6
f 457/3/6 452/3/6 458/3/6
f 453/3/6 454/3/6 459/3/6
f 458/1/6 453/1/6 459/1/6
f 459/3/6 454/3/6 460/3/6
f 455/1/6 456/1/6 461/1/6
f 461/1/6 456/1/6 462/1/6
f 459/1/6 460/1/6 463/1/6
f 463/1/6 460/1/6 464/1/6
f 461/3/6 462/3/6 465/3/6
f 465/3/6 462/3/6 466/3/6
f 463/3/6 464/3/6 467/3/6
f 467/3/6 464/3/6 468/3/6
f 465/1/6 466/1/6 469/1/6
f 469/1/6 466/1/6 470/1/6
f 467/1/6 468/1/6 473/1/6
f 473/1/6 468/1/6 474/1/6
f 469/3/6 470/3/6 475/3/6
f 470/1/6 471/1/6 476/1/6
f 475/3/6 470/3/6 476/3/6
f 471/3/6 472/3/6 477/3/6
f 476/1/6 471/1/6 477/1/6
f 472/1/6 473/1/6 478/1/6
f 477/3/6 472/3/6 478/3/6
f 473/3/6 474/3/6 479/3/6
f 478/1/6 473/1/6 479/1/6
f 479/3/6 474/3/6 480/3/6
f 481/2/6 482/2/6 484/2/6
f 482/3/6 483/3/6 485/3/6
f 484/2/6 482/2/6 485/2/6
f 486/3/6 487/3/6 490/3/6
f 487/1/6 488/1/6 491/1/6
f 490/3/6 487/3/6 491/3/6
f 488/3/6 489/3/6 492/3/6
f 491/1/6 488/1/6 492/1/6
f 492/3/6 489/3/6 493/3/6
f 490/1/6 491/1/6 494/1/6
f 491/3/6 492/3/6 495/3/6
f 494/1/6 491/1/6 495/1/6
f 492/1/6 493/1/6 496/1/6
f 495/3/6 492/3/6 496/3/6
f 496/1/6 493/1/6 497/1/6
f 484/3/6 485/3/6 498/3/6
f 485/3/6 483/3/6 499/3/6
f 498/3/6 485/3/6 499/3/6
f 494/3/6 495/3/6 500/3/6
f 495/1/6 496/1/6 501/1/6
f 500/3/6 495/3/6 501/3/6
f 496/3/6 497/3/6 502/3/6
f 501/1/6 496/1/6 502/1/6
f 502/3/6 497/3/6 503/3/6
f 498/2/6 499/2/6 504/2/6
f 499/3/6 483/3/6 505/3/6
f 504/2/6 499/2/6 505/2/6
f 505/3/6 483/3/6 506/3/6
